<mxfile host="65bd71144e">
    <diagram id="npxSsfrbZfB0k6sksUOL" name="Page-1">
        <mxGraphModel dx="1715" dy="862" grid="1" gridSize="10" guides="1" tooltips="1" connect="1" arrows="1" fold="1" page="1" pageScale="1" pageWidth="1400" pageHeight="850" math="0" shadow="0">
            <root>
                <mxCell id="0"/>
                <mxCell id="1" parent="0"/>
                <mxCell id="2" style="edgeStyle=orthogonalEdgeStyle;rounded=0;html=1;exitX=0.5;exitY=0;entryX=0.5;entryY=1.019;entryPerimeter=0;jettySize=auto;orthogonalLoop=1;strokeWidth=3;fontSize=16;" edge="1" parent="1" source="3" target="4">
                    <mxGeometry relative="1" as="geometry"/>
                </mxCell>
                <mxCell id="3" value="React/Angular/Whatever App" style="rounded=0;whiteSpace=wrap;html=1;fontSize=16;align=center;" vertex="1" parent="1">
                    <mxGeometry x="1198" y="655" width="360" height="50" as="geometry"/>
                </mxCell>
                <mxCell id="4" value="" style="strokeWidth=1;shadow=0;dashed=0;align=center;html=1;shape=mxgraph.mockup.containers.browserWindow;rSize=0;fillColor=#ffffff;strokeColor=#666666;mainText=,;recursiveResize=0;fontSize=16;" vertex="1" parent="1">
                    <mxGeometry x="1158" y="455" width="440" height="160" as="geometry"/>
                </mxCell>
                <mxCell id="5" value="Page 1" style="strokeWidth=1;shadow=0;dashed=0;align=center;html=1;shape=mxgraph.mockup.containers.anchor;fontSize=17;fontColor=#666666;align=left;" vertex="1" parent="4">
                    <mxGeometry x="60" y="12" width="110" height="26" as="geometry"/>
                </mxCell>
                <mxCell id="6" value="https://www.myapp.com" style="strokeWidth=1;shadow=0;dashed=0;align=center;html=1;shape=mxgraph.mockup.containers.anchor;rSize=0;fontSize=17;fontColor=#666666;align=left;" vertex="1" parent="4">
                    <mxGeometry x="130" y="60" width="250" height="26" as="geometry"/>
                </mxCell>
                <mxCell id="7" value="" style="endArrow=none;dashed=1;html=1;strokeWidth=3;fontSize=16;" edge="1" parent="1">
                    <mxGeometry width="50" height="50" relative="1" as="geometry">
                        <mxPoint x="1093" y="735" as="sourcePoint"/>
                        <mxPoint x="1663" y="735" as="targetPoint"/>
                    </mxGeometry>
                </mxCell>
                <mxCell id="8" value="Frontend" style="text;html=1;strokeColor=none;fillColor=none;align=center;verticalAlign=middle;whiteSpace=wrap;rounded=0;fontSize=16;" vertex="1" parent="1">
                    <mxGeometry x="1088" y="705" width="40" height="20" as="geometry"/>
                </mxCell>
                <mxCell id="9" value="Backend" style="text;html=1;strokeColor=none;fillColor=none;align=center;verticalAlign=middle;whiteSpace=wrap;rounded=0;fontSize=16;" vertex="1" parent="1">
                    <mxGeometry x="1088" y="750" width="40" height="20" as="geometry"/>
                </mxCell>
                <mxCell id="10" style="edgeStyle=orthogonalEdgeStyle;rounded=0;html=1;exitX=0.5;exitY=1;jettySize=auto;orthogonalLoop=1;strokeWidth=3;fontSize=16;" edge="1" parent="1" source="11" target="16">
                    <mxGeometry relative="1" as="geometry"/>
                </mxCell>
                <mxCell id="11" value="HTTP Request" style="rounded=0;whiteSpace=wrap;html=1;fontSize=16;align=center;" vertex="1" parent="1">
                    <mxGeometry x="1228" y="768" width="140" height="35" as="geometry"/>
                </mxCell>
                <mxCell id="12" style="edgeStyle=orthogonalEdgeStyle;rounded=0;html=1;exitX=0.5;exitY=0;entryX=0.694;entryY=1.1;entryPerimeter=0;jettySize=auto;orthogonalLoop=1;strokeWidth=3;fontSize=16;" edge="1" parent="1" source="13" target="3">
                    <mxGeometry relative="1" as="geometry"/>
                </mxCell>
                <mxCell id="13" value="HTTP Response" style="rounded=0;whiteSpace=wrap;html=1;fontSize=16;align=center;" vertex="1" parent="1">
                    <mxGeometry x="1378" y="768" width="140" height="35" as="geometry"/>
                </mxCell>
                <mxCell id="14" style="edgeStyle=orthogonalEdgeStyle;rounded=0;html=1;jettySize=auto;orthogonalLoop=1;strokeWidth=3;fontSize=16;" edge="1" parent="1">
                    <mxGeometry relative="1" as="geometry">
                        <mxPoint x="1298" y="705" as="sourcePoint"/>
                        <mxPoint x="1298" y="770" as="targetPoint"/>
                    </mxGeometry>
                </mxCell>
                <mxCell id="15" style="edgeStyle=orthogonalEdgeStyle;rounded=0;html=1;exitX=0.5;exitY=1;jettySize=auto;orthogonalLoop=1;strokeWidth=3;fontSize=16;" edge="1" parent="1" source="16" target="21">
                    <mxGeometry relative="1" as="geometry"/>
                </mxCell>
                <mxCell id="16" value="Middleware" style="rounded=0;whiteSpace=wrap;html=1;fontSize=16;align=center;" vertex="1" parent="1">
                    <mxGeometry x="1238" y="835" width="120" height="30" as="geometry"/>
                </mxCell>
                <mxCell id="17" value="Route Handler" style="rounded=0;whiteSpace=wrap;html=1;fontSize=16;align=center;" vertex="1" parent="1">
                    <mxGeometry x="1098" y="955" width="120" height="50" as="geometry"/>
                </mxCell>
                <mxCell id="18" style="edgeStyle=orthogonalEdgeStyle;rounded=0;html=1;exitX=0.5;exitY=1;entryX=0.5;entryY=0;jettySize=auto;orthogonalLoop=1;strokeWidth=3;fontSize=16;" edge="1" parent="1" source="21" target="22">
                    <mxGeometry relative="1" as="geometry"/>
                </mxCell>
                <mxCell id="19" style="edgeStyle=orthogonalEdgeStyle;rounded=0;html=1;exitX=0.25;exitY=1;entryX=0.5;entryY=0;jettySize=auto;orthogonalLoop=1;strokeWidth=3;fontSize=16;" edge="1" parent="1" source="21" target="17">
                    <mxGeometry relative="1" as="geometry"/>
                </mxCell>
                <mxCell id="20" style="edgeStyle=orthogonalEdgeStyle;rounded=0;html=1;exitX=0.75;exitY=1;entryX=0.5;entryY=0;jettySize=auto;orthogonalLoop=1;strokeWidth=3;fontSize=16;" edge="1" parent="1" source="21" target="24">
                    <mxGeometry relative="1" as="geometry"/>
                </mxCell>
                <mxCell id="21" value="Middleware" style="rounded=0;whiteSpace=wrap;html=1;fontSize=16;align=center;" vertex="1" parent="1">
                    <mxGeometry x="1238" y="885" width="120" height="30" as="geometry"/>
                </mxCell>
                <mxCell id="22" value="Route Handler" style="rounded=0;whiteSpace=wrap;html=1;fontSize=16;align=center;" vertex="1" parent="1">
                    <mxGeometry x="1238" y="955" width="120" height="50" as="geometry"/>
                </mxCell>
                <mxCell id="23" style="edgeStyle=orthogonalEdgeStyle;rounded=0;html=1;exitX=0.5;exitY=1;entryX=0.5;entryY=1;jettySize=auto;orthogonalLoop=1;strokeWidth=3;fontSize=16;" edge="1" parent="1" source="24" target="13">
                    <mxGeometry relative="1" as="geometry">
                        <Array as="points">
                            <mxPoint x="1438" y="1155"/>
                            <mxPoint x="1538" y="1155"/>
                            <mxPoint x="1538" y="879"/>
                            <mxPoint x="1448" y="879"/>
                        </Array>
                    </mxGeometry>
                </mxCell>
                <mxCell id="24" value="Route Handler" style="rounded=0;whiteSpace=wrap;html=1;fontSize=16;align=center;" vertex="1" parent="1">
                    <mxGeometry x="1378" y="955" width="120" height="180" as="geometry"/>
                </mxCell>
                <mxCell id="25" style="edgeStyle=orthogonalEdgeStyle;rounded=0;html=1;exitX=0;exitY=0.5;entryX=1;entryY=0.5;jettySize=auto;orthogonalLoop=1;strokeWidth=3;fontSize=16;" edge="1" parent="1" source="27" target="32">
                    <mxGeometry relative="1" as="geometry"/>
                </mxCell>
                <mxCell id="26" style="edgeStyle=orthogonalEdgeStyle;rounded=0;html=1;exitX=1;exitY=0.5;entryX=0;entryY=0.833;entryPerimeter=0;jettySize=auto;orthogonalLoop=1;strokeWidth=3;fontSize=16;" edge="1" parent="1" source="27" target="24">
                    <mxGeometry relative="1" as="geometry"/>
                </mxCell>
                <mxCell id="27" value="Mongoose" style="rounded=0;whiteSpace=wrap;html=1;fontSize=16;align=center;" vertex="1" parent="1">
                    <mxGeometry x="1230" y="1075" width="120" height="60" as="geometry"/>
                </mxCell>
                <mxCell id="28" style="edgeStyle=orthogonalEdgeStyle;rounded=0;html=1;exitX=0.75;exitY=0;entryX=0.25;entryY=1;jettySize=auto;orthogonalLoop=1;strokeWidth=3;fontSize=16;" edge="1" parent="1" source="29" target="27">
                    <mxGeometry relative="1" as="geometry"/>
                </mxCell>
                <mxCell id="29" value="Model" style="rounded=0;whiteSpace=wrap;html=1;fontSize=16;align=center;" vertex="1" parent="1">
                    <mxGeometry x="1192" y="1185" width="90" height="40" as="geometry"/>
                </mxCell>
                <mxCell id="30" style="edgeStyle=orthogonalEdgeStyle;rounded=0;html=1;exitX=0.25;exitY=0;entryX=0.75;entryY=1;jettySize=auto;orthogonalLoop=1;strokeWidth=3;fontSize=16;" edge="1" parent="1" source="31" target="27">
                    <mxGeometry relative="1" as="geometry"/>
                </mxCell>
                <mxCell id="31" value="Model" style="rounded=0;whiteSpace=wrap;html=1;fontSize=16;align=center;" vertex="1" parent="1">
                    <mxGeometry x="1297" y="1185" width="90" height="40" as="geometry"/>
                </mxCell>
                <mxCell id="32" value="MongoDB" style="rounded=0;whiteSpace=wrap;html=1;fontSize=16;align=center;" vertex="1" parent="1">
                    <mxGeometry x="1070" y="1075" width="120" height="60" as="geometry"/>
                </mxCell>
            </root>
        </mxGraphModel>
    </diagram>
    <diagram name="02 - goal" id="D0SrlejiQFV-xsmkPxAR">
        <mxGraphModel dx="1886" dy="948" grid="1" gridSize="10" guides="1" tooltips="1" connect="1" arrows="1" fold="1" page="1" pageScale="1" pageWidth="3300" pageHeight="4681" background="#ffffff" math="0" shadow="0">
            <root>
                <mxCell id="0"/>
                <mxCell id="1" parent="0"/>
                <mxCell id="2" style="edgeStyle=orthogonalEdgeStyle;rounded=0;html=1;exitX=0.5;exitY=1;endSize=6;jettySize=auto;orthogonalLoop=1;strokeWidth=3;fontSize=18;" parent="1" source="3" target="4" edge="1">
                    <mxGeometry relative="1" as="geometry"/>
                </mxCell>
                <mxCell id="3" value="Existing, Plain NodeJS App.&amp;nbsp; Has basic routing and auth setup." style="rounded=0;whiteSpace=wrap;html=1;fontSize=18;fillColor=#fff2cc;strokeColor=#d6b656;" parent="1" vertex="1">
                    <mxGeometry x="620" y="135" width="260" height="70" as="geometry"/>
                </mxCell>
                <mxCell id="4" value="Solid, Production Ready App" style="rounded=0;whiteSpace=wrap;html=1;fontSize=18;fillColor=#dae8fc;strokeColor=#6c8ebf;" parent="1" vertex="1">
                    <mxGeometry x="620" y="455" width="260" height="70" as="geometry"/>
                </mxCell>
                <mxCell id="5" value="Browser Based Integration Testing" style="rounded=0;whiteSpace=wrap;html=1;fontSize=18;" parent="1" vertex="1">
                    <mxGeometry x="820" y="285" width="300" height="40" as="geometry"/>
                </mxCell>
                <mxCell id="6" value="+" style="rounded=0;whiteSpace=wrap;html=1;fontSize=18;fillColor=#d5e8d4;strokeColor=#82b366;" parent="1" vertex="1">
                    <mxGeometry x="770" y="285" width="50" height="40" as="geometry"/>
                </mxCell>
                <mxCell id="7" value="Continuous Integration Setup" style="rounded=0;whiteSpace=wrap;html=1;fontSize=18;" parent="1" vertex="1">
                    <mxGeometry x="820" y="325" width="300" height="40" as="geometry"/>
                </mxCell>
                <mxCell id="8" value="+" style="rounded=0;whiteSpace=wrap;html=1;fontSize=18;fillColor=#d5e8d4;strokeColor=#82b366;" parent="1" vertex="1">
                    <mxGeometry x="770" y="325" width="50" height="40" as="geometry"/>
                </mxCell>
                <mxCell id="9" value="Scalable File/Image Upload" style="rounded=0;whiteSpace=wrap;html=1;fontSize=18;" parent="1" vertex="1">
                    <mxGeometry x="820" y="365" width="300" height="40" as="geometry"/>
                </mxCell>
                <mxCell id="10" value="+" style="rounded=0;whiteSpace=wrap;html=1;fontSize=18;fillColor=#d5e8d4;strokeColor=#82b366;" parent="1" vertex="1">
                    <mxGeometry x="770" y="365" width="50" height="40" as="geometry"/>
                </mxCell>
                <mxCell id="13" value="Redis-Backed Caching" style="rounded=0;whiteSpace=wrap;html=1;fontSize=18;" parent="1" vertex="1">
                    <mxGeometry x="820" y="245" width="300" height="40" as="geometry"/>
                </mxCell>
                <mxCell id="14" value="+" style="rounded=0;whiteSpace=wrap;html=1;fontSize=18;fillColor=#d5e8d4;strokeColor=#82b366;" parent="1" vertex="1">
                    <mxGeometry x="770" y="245" width="50" height="40" as="geometry"/>
                </mxCell>
                <mxCell id="15" value="" style="shape=curlyBracket;whiteSpace=wrap;html=1;rounded=1;fontSize=12;" parent="1" vertex="1">
                    <mxGeometry x="560" y="135" width="50" height="70" as="geometry"/>
                </mxCell>
                <mxCell id="16" value="We're going to start with this" style="text;html=1;strokeColor=none;fillColor=none;align=right;verticalAlign=middle;whiteSpace=wrap;rounded=0;fontSize=14;fontStyle=2" parent="1" vertex="1">
                    <mxGeometry x="450" y="160" width="110" height="20" as="geometry"/>
                </mxCell>
                <mxCell id="17" value="" style="shape=curlyBracket;whiteSpace=wrap;html=1;rounded=1;fontSize=12;rotation=180;" parent="1" vertex="1">
                    <mxGeometry x="1130" y="246" width="50" height="161" as="geometry"/>
                </mxCell>
                <mxCell id="18" value="Then add this stuff in" style="text;html=1;strokeColor=none;fillColor=none;align=left;verticalAlign=middle;whiteSpace=wrap;rounded=0;fontSize=14;fontStyle=2" parent="1" vertex="1">
                    <mxGeometry x="1180" y="316.5" width="110" height="20" as="geometry"/>
                </mxCell>
                <mxCell id="19" value="" style="shape=curlyBracket;whiteSpace=wrap;html=1;rounded=1;fontSize=12;" parent="1" vertex="1">
                    <mxGeometry x="560" y="455" width="50" height="70" as="geometry"/>
                </mxCell>
                <mxCell id="20" value="And end up with this" style="text;html=1;strokeColor=none;fillColor=none;align=right;verticalAlign=middle;whiteSpace=wrap;rounded=0;fontSize=14;fontStyle=2" parent="1" vertex="1">
                    <mxGeometry x="470" y="480" width="90" height="20" as="geometry"/>
                </mxCell>
            </root>
        </mxGraphModel>
    </diagram>
    <diagram name="05 - url" id="nwC3_-RIQalSzg1RCYTy">
        <mxGraphModel dx="1886" dy="948" grid="1" gridSize="10" guides="1" tooltips="1" connect="1" arrows="1" fold="1" page="1" pageScale="1" pageWidth="3300" pageHeight="4681" background="#ffffff" math="0" shadow="0">
            <root>
                <mxCell id="0"/>
                <mxCell id="1" parent="0"/>
                <mxCell id="2" value="github.com/StephenGrider/AdvancedNodeStarter" style="rounded=0;whiteSpace=wrap;html=1;strokeWidth=1;fontSize=16;align=center;fillColor=#dae8fc;strokeColor=#6c8ebf;" parent="1" vertex="1">
                    <mxGeometry x="420" y="250" width="410" height="130" as="geometry"/>
                </mxCell>
                <mxCell id="3" value="Starter Git Repo" style="text;html=1;strokeColor=none;fillColor=none;align=center;verticalAlign=middle;whiteSpace=wrap;rounded=0;fontSize=16;fontStyle=1" parent="1" vertex="1">
                    <mxGeometry x="510" y="220" width="230" height="20" as="geometry"/>
                </mxCell>
            </root>
        </mxGraphModel>
    </diagram>
    <diagram name="03 - walkthrough" id="5rB8UiXKqTYDSB3HXi7W">
        <mxGraphModel dx="1886" dy="948" grid="1" gridSize="10" guides="1" tooltips="1" connect="1" arrows="1" fold="1" page="1" pageScale="1" pageWidth="3300" pageHeight="4681" background="#ffffff" math="0" shadow="0">
            <root>
                <mxCell id="0"/>
                <mxCell id="1" parent="0"/>
                <mxCell id="2" style="edgeStyle=orthogonalEdgeStyle;rounded=0;html=1;exitX=0.5;exitY=0;entryX=0.5;entryY=1.019;entryPerimeter=0;jettySize=auto;orthogonalLoop=1;strokeWidth=3;fontSize=16;" parent="1" source="3" target="4" edge="1">
                    <mxGeometry relative="1" as="geometry"/>
                </mxCell>
                <mxCell id="3" value="Create-React-App" style="rounded=0;whiteSpace=wrap;html=1;fontSize=16;align=center;" parent="1" vertex="1">
                    <mxGeometry x="620" y="600" width="360" height="50" as="geometry"/>
                </mxCell>
                <mxCell id="4" value="" style="strokeWidth=1;shadow=0;dashed=0;align=center;html=1;shape=mxgraph.mockup.containers.browserWindow;rSize=0;fillColor=#ffffff;strokeColor=#666666;mainText=,;recursiveResize=0;fontSize=16;" parent="1" vertex="1">
                    <mxGeometry x="580" y="400" width="440" height="160" as="geometry"/>
                </mxCell>
                <mxCell id="5" value="Page 1" style="strokeWidth=1;shadow=0;dashed=0;align=center;html=1;shape=mxgraph.mockup.containers.anchor;fontSize=17;fontColor=#666666;align=left;" parent="4" vertex="1">
                    <mxGeometry x="60" y="12" width="110" height="26" as="geometry"/>
                </mxCell>
                <mxCell id="6" value="https://www.draw.io" style="strokeWidth=1;shadow=0;dashed=0;align=center;html=1;shape=mxgraph.mockup.containers.anchor;rSize=0;fontSize=17;fontColor=#666666;align=left;" parent="4" vertex="1">
                    <mxGeometry x="130" y="60" width="250" height="26" as="geometry"/>
                </mxCell>
                <mxCell id="7" value="" style="endArrow=none;dashed=1;html=1;strokeWidth=3;fontSize=16;" parent="1" edge="1">
                    <mxGeometry width="50" height="50" relative="1" as="geometry">
                        <mxPoint x="515" y="680" as="sourcePoint"/>
                        <mxPoint x="1085" y="680" as="targetPoint"/>
                    </mxGeometry>
                </mxCell>
                <mxCell id="8" value="Frontend" style="text;html=1;strokeColor=none;fillColor=none;align=center;verticalAlign=middle;whiteSpace=wrap;rounded=0;fontSize=16;" parent="1" vertex="1">
                    <mxGeometry x="510" y="650" width="40" height="20" as="geometry"/>
                </mxCell>
                <mxCell id="9" value="Backend" style="text;html=1;strokeColor=none;fillColor=none;align=center;verticalAlign=middle;whiteSpace=wrap;rounded=0;fontSize=16;" parent="1" vertex="1">
                    <mxGeometry x="510" y="695" width="40" height="20" as="geometry"/>
                </mxCell>
                <mxCell id="10" style="edgeStyle=orthogonalEdgeStyle;rounded=0;html=1;exitX=0.5;exitY=1;jettySize=auto;orthogonalLoop=1;strokeWidth=3;fontSize=16;" parent="1" source="11" target="16" edge="1">
                    <mxGeometry relative="1" as="geometry"/>
                </mxCell>
                <mxCell id="11" value="HTTP Request" style="rounded=0;whiteSpace=wrap;html=1;fontSize=16;align=center;" parent="1" vertex="1">
                    <mxGeometry x="650" y="713" width="140" height="35" as="geometry"/>
                </mxCell>
                <mxCell id="12" style="edgeStyle=orthogonalEdgeStyle;rounded=0;html=1;exitX=0.5;exitY=0;entryX=0.694;entryY=1.1;entryPerimeter=0;jettySize=auto;orthogonalLoop=1;strokeWidth=3;fontSize=16;" parent="1" source="13" target="3" edge="1">
                    <mxGeometry relative="1" as="geometry">
                        <Array as="points">
                            <mxPoint x="870" y="681"/>
                        </Array>
                    </mxGeometry>
                </mxCell>
                <mxCell id="13" value="HTTP Response" style="rounded=0;whiteSpace=wrap;html=1;fontSize=16;align=center;" parent="1" vertex="1">
                    <mxGeometry x="800" y="713" width="140" height="35" as="geometry"/>
                </mxCell>
                <mxCell id="14" style="edgeStyle=orthogonalEdgeStyle;rounded=0;html=1;jettySize=auto;orthogonalLoop=1;strokeWidth=3;fontSize=16;" parent="1" edge="1">
                    <mxGeometry relative="1" as="geometry">
                        <mxPoint x="720" y="650" as="sourcePoint"/>
                        <mxPoint x="720" y="715" as="targetPoint"/>
                    </mxGeometry>
                </mxCell>
                <mxCell id="15" style="edgeStyle=orthogonalEdgeStyle;rounded=0;html=1;exitX=0.5;exitY=1;jettySize=auto;orthogonalLoop=1;strokeWidth=3;fontSize=16;" parent="1" source="16" target="21" edge="1">
                    <mxGeometry relative="1" as="geometry"/>
                </mxCell>
                <mxCell id="16" value="BodyParser" style="rounded=0;whiteSpace=wrap;html=1;fontSize=16;align=center;" parent="1" vertex="1">
                    <mxGeometry x="660" y="780" width="120" height="30" as="geometry"/>
                </mxCell>
                <mxCell id="35" style="edgeStyle=orthogonalEdgeStyle;rounded=0;html=1;exitX=0.5;exitY=1;jettySize=auto;orthogonalLoop=1;strokeWidth=3;fontSize=16;" parent="1" source="21" target="34" edge="1">
                    <mxGeometry relative="1" as="geometry"/>
                </mxCell>
                <mxCell id="21" value="CookieSession" style="rounded=0;whiteSpace=wrap;html=1;fontSize=16;align=center;" parent="1" vertex="1">
                    <mxGeometry x="660" y="830" width="120" height="30" as="geometry"/>
                </mxCell>
                <mxCell id="22" value="AuthRoutes" style="rounded=0;whiteSpace=wrap;html=1;fontSize=16;align=center;" parent="1" vertex="1">
                    <mxGeometry x="590" y="983" width="120" height="50" as="geometry"/>
                </mxCell>
                <mxCell id="41" style="edgeStyle=orthogonalEdgeStyle;rounded=0;html=1;exitX=1;exitY=0.5;jettySize=auto;orthogonalLoop=1;strokeWidth=3;fontSize=16;" parent="1" source="24" target="13" edge="1">
                    <mxGeometry relative="1" as="geometry"/>
                </mxCell>
                <mxCell id="24" value="BlogRoutes" style="rounded=0;whiteSpace=wrap;html=1;fontSize=16;align=center;" parent="1" vertex="1">
                    <mxGeometry x="730" y="983" width="120" height="50" as="geometry"/>
                </mxCell>
                <mxCell id="25" style="edgeStyle=orthogonalEdgeStyle;rounded=0;html=1;exitX=0;exitY=0.5;entryX=1;entryY=0.5;jettySize=auto;orthogonalLoop=1;strokeWidth=3;fontSize=16;" parent="1" source="27" target="32" edge="1">
                    <mxGeometry relative="1" as="geometry"/>
                </mxCell>
                <mxCell id="27" value="Mongoose" style="rounded=0;whiteSpace=wrap;html=1;fontSize=16;align=center;" parent="1" vertex="1">
                    <mxGeometry x="658" y="1083" width="120" height="60" as="geometry"/>
                </mxCell>
                <mxCell id="28" style="edgeStyle=orthogonalEdgeStyle;rounded=0;html=1;exitX=0.75;exitY=0;entryX=0.25;entryY=1;jettySize=auto;orthogonalLoop=1;strokeWidth=3;fontSize=16;" parent="1" source="29" target="27" edge="1">
                    <mxGeometry relative="1" as="geometry"/>
                </mxCell>
                <mxCell id="29" value="User" style="rounded=0;whiteSpace=wrap;html=1;fontSize=16;align=center;" parent="1" vertex="1">
                    <mxGeometry x="621" y="1193" width="90" height="40" as="geometry"/>
                </mxCell>
                <mxCell id="30" style="edgeStyle=orthogonalEdgeStyle;rounded=0;html=1;exitX=0.25;exitY=0;entryX=0.75;entryY=1;jettySize=auto;orthogonalLoop=1;strokeWidth=3;fontSize=16;" parent="1" source="31" target="27" edge="1">
                    <mxGeometry relative="1" as="geometry"/>
                </mxCell>
                <mxCell id="31" value="Blog" style="rounded=0;whiteSpace=wrap;html=1;fontSize=16;align=center;" parent="1" vertex="1">
                    <mxGeometry x="726" y="1193" width="90" height="40" as="geometry"/>
                </mxCell>
                <mxCell id="32" value="MongoDB" style="rounded=0;whiteSpace=wrap;html=1;fontSize=16;align=center;" parent="1" vertex="1">
                    <mxGeometry x="498" y="1083" width="120" height="60" as="geometry"/>
                </mxCell>
                <mxCell id="36" style="edgeStyle=orthogonalEdgeStyle;rounded=0;html=1;exitX=0.25;exitY=1;entryX=0.75;entryY=0;jettySize=auto;orthogonalLoop=1;strokeWidth=3;fontSize=16;" parent="1" source="34" target="22" edge="1">
                    <mxGeometry relative="1" as="geometry"/>
                </mxCell>
                <mxCell id="43" style="edgeStyle=orthogonalEdgeStyle;rounded=0;html=1;exitX=0.75;exitY=1;entryX=0.5;entryY=0;jettySize=auto;orthogonalLoop=1;strokeWidth=3;fontSize=16;" parent="1" source="34" target="42" edge="1">
                    <mxGeometry relative="1" as="geometry"/>
                </mxCell>
                <mxCell id="34" value="Passport" style="rounded=0;whiteSpace=wrap;html=1;fontSize=16;align=center;" parent="1" vertex="1">
                    <mxGeometry x="660" y="880" width="120" height="30" as="geometry"/>
                </mxCell>
                <mxCell id="40" value="" style="shape=curlyBracket;whiteSpace=wrap;html=1;rounded=1;fontSize=16;align=center;rotation=-90;strokeWidth=3;" parent="1" vertex="1">
                    <mxGeometry x="701" y="930" width="40" height="262" as="geometry"/>
                </mxCell>
                <mxCell id="42" value="RequireLogin" style="rounded=0;whiteSpace=wrap;html=1;fontSize=16;align=center;" parent="1" vertex="1">
                    <mxGeometry x="730" y="953" width="120" height="30" as="geometry"/>
                </mxCell>
            </root>
        </mxGraphModel>
    </diagram>
    <diagram name="03 - routes" id="bJ7NL-VGMfGV984mVTMN">
        <mxGraphModel dx="1886" dy="948" grid="1" gridSize="10" guides="1" tooltips="1" connect="1" arrows="1" fold="1" page="1" pageScale="1" pageWidth="3300" pageHeight="4681" background="#ffffff" math="0" shadow="0">
            <root>
                <mxCell id="0"/>
                <mxCell id="1" parent="0"/>
                <mxCell id="2" value="Express Routes" style="rounded=0;whiteSpace=wrap;html=1;fontSize=19;align=center;fillColor=#d5e8d4;strokeColor=#82b366;" parent="1" vertex="1">
                    <mxGeometry x="590" y="170" width="110" height="340" as="geometry"/>
                </mxCell>
                <mxCell id="3" value="/auth/google" style="rounded=0;whiteSpace=wrap;html=1;fontSize=19;align=center;fillColor=#dae8fc;strokeColor=#6c8ebf;" parent="1" vertex="1">
                    <mxGeometry x="700" y="170" width="230" height="40" as="geometry"/>
                </mxCell>
                <mxCell id="4" value="/auth/google/callback" style="rounded=0;whiteSpace=wrap;html=1;fontSize=19;align=center;fillColor=#dae8fc;strokeColor=#6c8ebf;" parent="1" vertex="1">
                    <mxGeometry x="700" y="210" width="230" height="40" as="geometry"/>
                </mxCell>
                <mxCell id="5" value="/auth/logout" style="rounded=0;whiteSpace=wrap;html=1;fontSize=19;align=center;fillColor=#dae8fc;strokeColor=#6c8ebf;" parent="1" vertex="1">
                    <mxGeometry x="700" y="250" width="230" height="40" as="geometry"/>
                </mxCell>
                <mxCell id="6" value="/api/current_user" style="rounded=0;whiteSpace=wrap;html=1;fontSize=19;align=center;fillColor=#dae8fc;strokeColor=#6c8ebf;" parent="1" vertex="1">
                    <mxGeometry x="700" y="290" width="230" height="40" as="geometry"/>
                </mxCell>
                <mxCell id="7" value="/api/blogs/:id" style="rounded=0;whiteSpace=wrap;html=1;fontSize=19;align=center;fillColor=#dae8fc;strokeColor=#6c8ebf;" parent="1" vertex="1">
                    <mxGeometry x="700" y="390" width="230" height="40" as="geometry"/>
                </mxCell>
                <mxCell id="8" value="GET /api/blogs" style="rounded=0;whiteSpace=wrap;html=1;fontSize=19;align=center;fillColor=#dae8fc;strokeColor=#6c8ebf;" parent="1" vertex="1">
                    <mxGeometry x="700" y="430" width="230" height="40" as="geometry"/>
                </mxCell>
                <mxCell id="9" value="POST /api/blogs" style="rounded=0;whiteSpace=wrap;html=1;fontSize=19;align=center;fillColor=#dae8fc;strokeColor=#6c8ebf;" parent="1" vertex="1">
                    <mxGeometry x="700" y="470" width="230" height="40" as="geometry"/>
                </mxCell>
                <mxCell id="10" value="Start OAuth flow to log user in" style="rounded=0;whiteSpace=wrap;html=1;fontSize=19;align=center;" parent="1" vertex="1">
                    <mxGeometry x="930" y="170" width="430" height="40" as="geometry"/>
                </mxCell>
                <mxCell id="11" value="Where users get sent to after OAuth flow" style="rounded=0;whiteSpace=wrap;html=1;fontSize=19;align=center;" parent="1" vertex="1">
                    <mxGeometry x="930" y="210" width="430" height="40" as="geometry"/>
                </mxCell>
                <mxCell id="12" value="Logout the current user" style="rounded=0;whiteSpace=wrap;html=1;fontSize=19;align=center;" parent="1" vertex="1">
                    <mxGeometry x="930" y="250" width="430" height="40" as="geometry"/>
                </mxCell>
                <mxCell id="13" value="Get the current user" style="rounded=0;whiteSpace=wrap;html=1;fontSize=19;align=center;" parent="1" vertex="1">
                    <mxGeometry x="930" y="290" width="430" height="40" as="geometry"/>
                </mxCell>
                <mxCell id="14" value="Get the blog with specified ID" style="rounded=0;whiteSpace=wrap;html=1;fontSize=19;align=center;" parent="1" vertex="1">
                    <mxGeometry x="930" y="390" width="430" height="40" as="geometry"/>
                </mxCell>
                <mxCell id="15" value="Get all blogs that belong to the current user" style="rounded=0;whiteSpace=wrap;html=1;fontSize=19;align=center;" parent="1" vertex="1">
                    <mxGeometry x="930" y="430" width="430" height="40" as="geometry"/>
                </mxCell>
                <mxCell id="16" value="Create a new blog" style="rounded=0;whiteSpace=wrap;html=1;fontSize=19;align=center;" parent="1" vertex="1">
                    <mxGeometry x="930" y="470" width="430" height="40" as="geometry"/>
                </mxCell>
            </root>
        </mxGraphModel>
    </diagram>
    <diagram name="06 - flow" id="26s4bO7nTljit4o0XYct">
        <mxGraphModel dx="990" dy="430" grid="1" gridSize="10" guides="1" tooltips="1" connect="1" arrows="1" fold="1" page="1" pageScale="1" pageWidth="3300" pageHeight="4681" background="#ffffff" math="0" shadow="0">
            <root>
                <mxCell id="0"/>
                <mxCell id="1" parent="0"/>
                <mxCell id="12" style="edgeStyle=orthogonalEdgeStyle;rounded=0;html=1;exitX=0.5;exitY=1;jettySize=auto;orthogonalLoop=1;strokeWidth=3;fontSize=16;" edge="1" parent="1" source="2" target="5">
                    <mxGeometry relative="1" as="geometry"/>
                </mxCell>
                <mxCell id="2" value="Visit localhost:3000/blogs" style="rounded=0;whiteSpace=wrap;html=1;strokeWidth=1;fontSize=16;align=center;" vertex="1" parent="1">
                    <mxGeometry x="490" y="70" width="280" height="40" as="geometry"/>
                </mxCell>
                <mxCell id="3" value="" style="endArrow=classic;html=1;strokeWidth=3;fontSize=16;" edge="1" parent="1">
                    <mxGeometry width="50" height="50" relative="1" as="geometry">
                        <mxPoint x="470" y="70" as="sourcePoint"/>
                        <mxPoint x="470" y="500" as="targetPoint"/>
                    </mxGeometry>
                </mxCell>
                <mxCell id="4" value="Time" style="text;html=1;strokeColor=none;fillColor=none;align=center;verticalAlign=middle;whiteSpace=wrap;rounded=0;fontSize=16;" vertex="1" parent="1">
                    <mxGeometry x="420" y="70" width="40" height="20" as="geometry"/>
                </mxCell>
                <mxCell id="13" style="edgeStyle=orthogonalEdgeStyle;rounded=0;html=1;exitX=0.5;exitY=1;jettySize=auto;orthogonalLoop=1;strokeWidth=3;fontSize=16;" edge="1" parent="1" source="5" target="6">
                    <mxGeometry relative="1" as="geometry"/>
                </mxCell>
                <mxCell id="5" value="React app loads in browser" style="rounded=0;whiteSpace=wrap;html=1;strokeWidth=1;fontSize=16;align=center;" vertex="1" parent="1">
                    <mxGeometry x="490" y="135" width="280" height="40" as="geometry"/>
                </mxCell>
                <mxCell id="15" style="edgeStyle=orthogonalEdgeStyle;rounded=0;html=1;exitX=0.5;exitY=1;entryX=0.5;entryY=0;jettySize=auto;orthogonalLoop=1;strokeWidth=3;fontSize=16;" edge="1" parent="1" source="6" target="7">
                    <mxGeometry relative="1" as="geometry"/>
                </mxCell>
                <mxCell id="6" value="React app needs details about the current user and their blogs" style="rounded=0;whiteSpace=wrap;html=1;strokeWidth=1;fontSize=16;align=center;" vertex="1" parent="1">
                    <mxGeometry x="490" y="200" width="280" height="40" as="geometry"/>
                </mxCell>
                <mxCell id="16" style="edgeStyle=orthogonalEdgeStyle;rounded=0;html=1;exitX=0.5;exitY=1;entryX=0.5;entryY=0;jettySize=auto;orthogonalLoop=1;strokeWidth=3;fontSize=16;" edge="1" parent="1" source="7" target="8">
                    <mxGeometry relative="1" as="geometry"/>
                </mxCell>
                <mxCell id="7" value="React app makes requests to get current user and blog list to backend" style="rounded=0;whiteSpace=wrap;html=1;strokeWidth=1;fontSize=16;align=center;" vertex="1" parent="1">
                    <mxGeometry x="490" y="265" width="280" height="40" as="geometry"/>
                </mxCell>
                <mxCell id="17" style="edgeStyle=orthogonalEdgeStyle;rounded=0;html=1;exitX=0.5;exitY=1;jettySize=auto;orthogonalLoop=1;strokeWidth=3;fontSize=16;" edge="1" parent="1" source="8" target="9">
                    <mxGeometry relative="1" as="geometry"/>
                </mxCell>
                <mxCell id="8" value="Express route handler sees request, tells Mongoose to get records" style="rounded=0;whiteSpace=wrap;html=1;strokeWidth=1;fontSize=16;align=center;" vertex="1" parent="1">
                    <mxGeometry x="490" y="330" width="280" height="40" as="geometry"/>
                </mxCell>
                <mxCell id="18" style="edgeStyle=orthogonalEdgeStyle;rounded=0;html=1;exitX=0.5;exitY=1;entryX=0.5;entryY=0;jettySize=auto;orthogonalLoop=1;strokeWidth=3;fontSize=16;" edge="1" parent="1" source="9" target="10">
                    <mxGeometry relative="1" as="geometry"/>
                </mxCell>
                <mxCell id="9" value="Mongoose reaches out to mongodb, fetches data" style="rounded=0;whiteSpace=wrap;html=1;strokeWidth=1;fontSize=16;align=center;" vertex="1" parent="1">
                    <mxGeometry x="490" y="395" width="280" height="40" as="geometry"/>
                </mxCell>
                <mxCell id="10" value="Express responds to React app" style="rounded=0;whiteSpace=wrap;html=1;strokeWidth=1;fontSize=16;align=center;" vertex="1" parent="1">
                    <mxGeometry x="490" y="460" width="280" height="40" as="geometry"/>
                </mxCell>
            </root>
        </mxGraphModel>
    </diagram>
    <diagram name="10 - index" id="bTEazR9MUUhcK3qCMOdz">
        <mxGraphModel dx="1886" dy="948" grid="1" gridSize="10" guides="1" tooltips="1" connect="1" arrows="1" fold="1" page="1" pageScale="1" pageWidth="3300" pageHeight="4681" background="#ffffff" math="0" shadow="0">
            <root>
                <mxCell id="0"/>
                <mxCell id="1" parent="0"/>
                <mxCell id="6" style="edgeStyle=orthogonalEdgeStyle;rounded=0;html=1;exitX=1;exitY=0.5;entryX=0;entryY=0.5;jettySize=auto;orthogonalLoop=1;strokeWidth=3;fontSize=18;" parent="1" source="2" target="3" edge="1">
                    <mxGeometry relative="1" as="geometry"/>
                </mxCell>
                <mxCell id="2" value="Query" style="rounded=0;whiteSpace=wrap;html=1;strokeWidth=1;fontSize=18;align=center;" parent="1" vertex="1">
                    <mxGeometry x="400" y="240" width="120" height="60" as="geometry"/>
                </mxCell>
                <mxCell id="3" value="" style="rounded=0;whiteSpace=wrap;html=1;strokeWidth=1;fontSize=18;align=center;" parent="1" vertex="1">
                    <mxGeometry x="570" y="160" width="320" height="220" as="geometry"/>
                </mxCell>
                <mxCell id="14" style="edgeStyle=orthogonalEdgeStyle;rounded=0;html=1;exitX=1;exitY=0.5;jettySize=auto;orthogonalLoop=1;strokeWidth=3;fontSize=18;" parent="1" source="4" target="12" edge="1">
                    <mxGeometry relative="1" as="geometry"/>
                </mxCell>
                <mxCell id="4" value="Index" style="rounded=0;whiteSpace=wrap;html=1;strokeWidth=1;fontSize=18;align=center;fillColor=#dae8fc;strokeColor=#6c8ebf;" parent="1" vertex="1">
                    <mxGeometry x="585" y="185" width="105" height="170" as="geometry"/>
                </mxCell>
                <mxCell id="5" value="Record" style="rounded=0;whiteSpace=wrap;html=1;strokeWidth=1;fontSize=18;align=center;" parent="1" vertex="1">
                    <mxGeometry x="770" y="185" width="105" height="25" as="geometry"/>
                </mxCell>
                <mxCell id="7" value="MongoDB Collection" style="text;html=1;strokeColor=none;fillColor=none;align=center;verticalAlign=middle;whiteSpace=wrap;rounded=0;fontSize=18;fontStyle=1" parent="1" vertex="1">
                    <mxGeometry x="638" y="136" width="205" height="20" as="geometry"/>
                </mxCell>
                <mxCell id="8" value="Record" style="rounded=0;whiteSpace=wrap;html=1;strokeWidth=1;fontSize=18;align=center;" parent="1" vertex="1">
                    <mxGeometry x="770" y="210" width="105" height="25" as="geometry"/>
                </mxCell>
                <mxCell id="9" value="Record" style="rounded=0;whiteSpace=wrap;html=1;strokeWidth=1;fontSize=18;align=center;" parent="1" vertex="1">
                    <mxGeometry x="770" y="235" width="105" height="25" as="geometry"/>
                </mxCell>
                <mxCell id="10" value="Record" style="rounded=0;whiteSpace=wrap;html=1;strokeWidth=1;fontSize=18;align=center;" parent="1" vertex="1">
                    <mxGeometry x="770" y="260" width="105" height="25" as="geometry"/>
                </mxCell>
                <mxCell id="11" value="Record" style="rounded=0;whiteSpace=wrap;html=1;strokeWidth=1;fontSize=18;align=center;" parent="1" vertex="1">
                    <mxGeometry x="770" y="285" width="105" height="25" as="geometry"/>
                </mxCell>
                <mxCell id="12" value="Record" style="rounded=0;whiteSpace=wrap;html=1;strokeWidth=1;fontSize=18;align=center;fillColor=#d5e8d4;strokeColor=#82b366;" parent="1" vertex="1">
                    <mxGeometry x="770" y="310" width="105" height="25" as="geometry"/>
                </mxCell>
                <mxCell id="13" value="Record" style="rounded=0;whiteSpace=wrap;html=1;strokeWidth=1;fontSize=18;align=center;" parent="1" vertex="1">
                    <mxGeometry x="770" y="335" width="105" height="25" as="geometry"/>
                </mxCell>
            </root>
        </mxGraphModel>
    </diagram>
    <diagram name="11 - noindex" id="2KoEQUttp65PrubRMpeB">
        <mxGraphModel dx="1886" dy="948" grid="1" gridSize="10" guides="1" tooltips="1" connect="1" arrows="1" fold="1" page="1" pageScale="1" pageWidth="3300" pageHeight="4681" background="#ffffff" math="0" shadow="0">
            <root>
                <mxCell id="0"/>
                <mxCell id="1" parent="0"/>
                <mxCell id="4" value="" style="rounded=0;whiteSpace=wrap;html=1;strokeWidth=1;fontSize=18;align=center;" parent="1" vertex="1">
                    <mxGeometry x="570" y="160" width="320" height="220" as="geometry"/>
                </mxCell>
                <mxCell id="6" value="Index for _id property" style="rounded=0;whiteSpace=wrap;html=1;strokeWidth=1;fontSize=18;align=center;fillColor=#dae8fc;strokeColor=#6c8ebf;" parent="1" vertex="1">
                    <mxGeometry x="585" y="185" width="105" height="55" as="geometry"/>
                </mxCell>
                <mxCell id="7" value="Blog" style="rounded=0;whiteSpace=wrap;html=1;strokeWidth=1;fontSize=18;align=center;" parent="1" vertex="1">
                    <mxGeometry x="770" y="185" width="105" height="25" as="geometry"/>
                </mxCell>
                <mxCell id="8" value="MongoDB Collection" style="text;html=1;strokeColor=none;fillColor=none;align=center;verticalAlign=middle;whiteSpace=wrap;rounded=0;fontSize=18;fontStyle=1" parent="1" vertex="1">
                    <mxGeometry x="638" y="136" width="205" height="20" as="geometry"/>
                </mxCell>
                <mxCell id="9" value="Blog" style="rounded=0;whiteSpace=wrap;html=1;strokeWidth=1;fontSize=18;align=center;" parent="1" vertex="1">
                    <mxGeometry x="770" y="210" width="105" height="25" as="geometry"/>
                </mxCell>
                <mxCell id="10" value="Blog" style="rounded=0;whiteSpace=wrap;html=1;strokeWidth=1;fontSize=18;align=center;" parent="1" vertex="1">
                    <mxGeometry x="770" y="235" width="105" height="25" as="geometry"/>
                </mxCell>
                <mxCell id="18" style="edgeStyle=orthogonalEdgeStyle;rounded=0;html=1;exitX=1;exitY=0.5;jettySize=auto;orthogonalLoop=1;strokeWidth=3;fontSize=18;" parent="1" source="11" target="16" edge="1">
                    <mxGeometry relative="1" as="geometry"/>
                </mxCell>
                <mxCell id="11" value="Blog" style="rounded=0;whiteSpace=wrap;html=1;strokeWidth=1;fontSize=18;align=center;" parent="1" vertex="1">
                    <mxGeometry x="770" y="260" width="105" height="25" as="geometry"/>
                </mxCell>
                <mxCell id="12" value="Blog" style="rounded=0;whiteSpace=wrap;html=1;strokeWidth=1;fontSize=18;align=center;" parent="1" vertex="1">
                    <mxGeometry x="770" y="285" width="105" height="25" as="geometry"/>
                </mxCell>
                <mxCell id="13" value="Blog" style="rounded=0;whiteSpace=wrap;html=1;strokeWidth=1;fontSize=18;align=center;fillColor=#ffffff;strokeColor=#000000;" parent="1" vertex="1">
                    <mxGeometry x="770" y="310" width="105" height="25" as="geometry"/>
                </mxCell>
                <mxCell id="14" value="Blog" style="rounded=0;whiteSpace=wrap;html=1;strokeWidth=1;fontSize=18;align=center;" parent="1" vertex="1">
                    <mxGeometry x="770" y="335" width="105" height="25" as="geometry"/>
                </mxCell>
                <mxCell id="15" value="_id" style="rounded=0;whiteSpace=wrap;html=1;strokeWidth=1;fontSize=18;align=center;" parent="1" vertex="1">
                    <mxGeometry x="920" y="235" width="110" height="25" as="geometry"/>
                </mxCell>
                <mxCell id="16" value="title" style="rounded=0;whiteSpace=wrap;html=1;strokeWidth=1;fontSize=18;align=center;" parent="1" vertex="1">
                    <mxGeometry x="920" y="260" width="110" height="25" as="geometry"/>
                </mxCell>
                <mxCell id="17" value="content" style="rounded=0;whiteSpace=wrap;html=1;strokeWidth=1;fontSize=18;align=center;" parent="1" vertex="1">
                    <mxGeometry x="920" y="285" width="110" height="25" as="geometry"/>
                </mxCell>
                <mxCell id="19" value="Query looking for Blog with specific 'title'" style="rounded=0;whiteSpace=wrap;html=1;strokeWidth=1;fontSize=18;align=center;" parent="1" vertex="1">
                    <mxGeometry x="420" y="215" width="105" height="90" as="geometry"/>
                </mxCell>
                <mxCell id="22" value="Index for 'title' property" style="rounded=0;whiteSpace=wrap;html=1;strokeWidth=1;fontSize=18;align=center;fillColor=#dae8fc;strokeColor=#6c8ebf;" parent="1" vertex="1">
                    <mxGeometry x="585" y="250" width="105" height="70" as="geometry"/>
                </mxCell>
            </root>
        </mxGraphModel>
    </diagram>
    <diagram name="08 - nocache" id="zDNzcsFutCOa_4WcFl1a">
        <mxGraphModel dx="825" dy="358" grid="1" gridSize="10" guides="1" tooltips="1" connect="1" arrows="1" fold="1" page="1" pageScale="1" pageWidth="3300" pageHeight="4681" background="#ffffff" math="0" shadow="0">
            <root>
                <mxCell id="0"/>
                <mxCell id="1" parent="0"/>
                <mxCell id="2" value="" style="rounded=0;whiteSpace=wrap;html=1;strokeWidth=1;fontSize=16;align=center;" vertex="1" parent="1">
                    <mxGeometry x="869" y="369" width="211" height="130" as="geometry"/>
                </mxCell>
                <mxCell id="3" style="edgeStyle=orthogonalEdgeStyle;rounded=0;html=1;exitX=0;exitY=0.5;entryX=1.019;entryY=0.5;entryPerimeter=0;jettySize=auto;orthogonalLoop=1;strokeWidth=3;fontSize=16;" edge="1" parent="1" source="4" target="9">
                    <mxGeometry relative="1" as="geometry"/>
                </mxCell>
                <mxCell id="4" value="Express App" style="rounded=0;whiteSpace=wrap;html=1;strokeWidth=1;fontSize=16;align=center;" vertex="1" parent="1">
                    <mxGeometry x="886" y="404" width="74" height="60" as="geometry"/>
                </mxCell>
                <mxCell id="5" style="edgeStyle=orthogonalEdgeStyle;rounded=0;html=1;exitX=0;exitY=0.5;jettySize=auto;orthogonalLoop=1;strokeWidth=3;fontSize=16;" edge="1" parent="1" source="7" target="4">
                    <mxGeometry relative="1" as="geometry"/>
                </mxCell>
                <mxCell id="7" value="Mongoose" style="rounded=0;whiteSpace=wrap;html=1;strokeWidth=1;fontSize=16;align=center;" vertex="1" parent="1">
                    <mxGeometry x="984" y="404" width="82" height="60" as="geometry"/>
                </mxCell>
                <mxCell id="8" value="Our Local Machine" style="text;html=1;strokeColor=none;fillColor=none;align=center;verticalAlign=middle;whiteSpace=wrap;rounded=0;fontSize=16;" vertex="1" parent="1">
                    <mxGeometry x="897" y="349" width="155" height="20" as="geometry"/>
                </mxCell>
                <mxCell id="9" value="" style="strokeWidth=1;shadow=0;dashed=0;align=center;html=1;shape=mxgraph.mockup.containers.browserWindow;rSize=0;fillColor=#ffffff;strokeColor=#666666;mainText=,;recursiveResize=0;fontSize=16;" vertex="1" parent="1">
                    <mxGeometry x="580" y="344" width="264" height="180" as="geometry"/>
                </mxCell>
                <mxCell id="10" value="Page 1" style="strokeWidth=1;shadow=0;dashed=0;align=center;html=1;shape=mxgraph.mockup.containers.anchor;fontSize=17;fontColor=#666666;align=left;" vertex="1" parent="9">
                    <mxGeometry x="60" y="12" width="110" height="26" as="geometry"/>
                </mxCell>
                <mxCell id="11" value="localhost:3000" style="strokeWidth=1;shadow=0;dashed=0;align=center;html=1;shape=mxgraph.mockup.containers.anchor;rSize=0;fontSize=17;fontColor=#666666;align=left;" vertex="1" parent="9">
                    <mxGeometry x="130" y="60" width="250" height="26" as="geometry"/>
                </mxCell>
                <mxCell id="14" style="edgeStyle=orthogonalEdgeStyle;rounded=0;html=1;exitX=1;exitY=0.5;jettySize=auto;orthogonalLoop=1;strokeWidth=3;fontSize=16;" edge="1" parent="1">
                    <mxGeometry relative="1" as="geometry">
                        <mxPoint x="1066.3333333333333" y="422" as="sourcePoint"/>
                        <mxPoint x="1150" y="422" as="targetPoint"/>
                    </mxGeometry>
                </mxCell>
                <mxCell id="15" style="edgeStyle=orthogonalEdgeStyle;rounded=0;html=1;exitX=0;exitY=0.75;entryX=1;entryY=0.75;jettySize=auto;orthogonalLoop=1;strokeWidth=3;fontSize=18;" edge="1" parent="1" source="16">
                    <mxGeometry relative="1" as="geometry">
                        <mxPoint x="1066" y="451" as="targetPoint"/>
                    </mxGeometry>
                </mxCell>
                <mxCell id="16" value="MongoDB" style="rounded=0;whiteSpace=wrap;html=1;strokeWidth=1;fontSize=16;align=center;" vertex="1" parent="1">
                    <mxGeometry x="1150" y="406" width="82" height="60" as="geometry"/>
                </mxCell>
                <mxCell id="18" value="Execute query" style="text;html=1;strokeColor=none;fillColor=none;align=center;verticalAlign=middle;whiteSpace=wrap;rounded=0;fontSize=12;fontStyle=2" vertex="1" parent="1">
                    <mxGeometry x="1132" y="382" width="119" height="18" as="geometry"/>
                </mxCell>
            </root>
        </mxGraphModel>
    </diagram>
    <diagram name="07 - db" id="_W9qDzHRmp_3QuK-C44P">
        <mxGraphModel dx="825" dy="358" grid="1" gridSize="10" guides="1" tooltips="1" connect="1" arrows="1" fold="1" page="1" pageScale="1" pageWidth="3300" pageHeight="4681" background="#ffffff" math="0" shadow="0">
            <root>
                <mxCell id="0"/>
                <mxCell id="1" parent="0"/>
                <mxCell id="2" value="" style="rounded=0;whiteSpace=wrap;html=1;strokeWidth=1;fontSize=16;align=center;" vertex="1" parent="1">
                    <mxGeometry x="869" y="369" width="211" height="130" as="geometry"/>
                </mxCell>
                <mxCell id="9" style="edgeStyle=orthogonalEdgeStyle;rounded=0;html=1;exitX=0;exitY=0.5;entryX=1.019;entryY=0.5;entryPerimeter=0;jettySize=auto;orthogonalLoop=1;strokeWidth=3;fontSize=16;" edge="1" parent="1" source="3" target="6">
                    <mxGeometry relative="1" as="geometry"/>
                </mxCell>
                <mxCell id="3" value="Express App" style="rounded=0;whiteSpace=wrap;html=1;strokeWidth=1;fontSize=16;align=center;" vertex="1" parent="1">
                    <mxGeometry x="886" y="404" width="74" height="60" as="geometry"/>
                </mxCell>
                <mxCell id="10" style="edgeStyle=orthogonalEdgeStyle;rounded=0;html=1;exitX=0;exitY=0.5;jettySize=auto;orthogonalLoop=1;strokeWidth=3;fontSize=16;" edge="1" parent="1" source="4" target="3">
                    <mxGeometry relative="1" as="geometry"/>
                </mxCell>
                <mxCell id="19" style="edgeStyle=orthogonalEdgeStyle;rounded=0;html=1;exitX=1;exitY=0.5;jettySize=auto;orthogonalLoop=1;strokeWidth=3;fontSize=16;" edge="1" parent="1">
                    <mxGeometry relative="1" as="geometry">
                        <mxPoint x="1066.3333333333333" y="420" as="sourcePoint"/>
                        <mxPoint x="1150" y="420" as="targetPoint"/>
                    </mxGeometry>
                </mxCell>
                <mxCell id="4" value="Mongoose" style="rounded=0;whiteSpace=wrap;html=1;strokeWidth=1;fontSize=16;align=center;" vertex="1" parent="1">
                    <mxGeometry x="984" y="404" width="82" height="60" as="geometry"/>
                </mxCell>
                <mxCell id="5" value="Our Local Machine" style="text;html=1;strokeColor=none;fillColor=none;align=center;verticalAlign=middle;whiteSpace=wrap;rounded=0;fontSize=16;" vertex="1" parent="1">
                    <mxGeometry x="897" y="349" width="155" height="20" as="geometry"/>
                </mxCell>
                <mxCell id="6" value="" style="strokeWidth=1;shadow=0;dashed=0;align=center;html=1;shape=mxgraph.mockup.containers.browserWindow;rSize=0;fillColor=#ffffff;strokeColor=#666666;mainText=,;recursiveResize=0;fontSize=16;" vertex="1" parent="1">
                    <mxGeometry x="580" y="344" width="264" height="180" as="geometry"/>
                </mxCell>
                <mxCell id="7" value="Page 1" style="strokeWidth=1;shadow=0;dashed=0;align=center;html=1;shape=mxgraph.mockup.containers.anchor;fontSize=17;fontColor=#666666;align=left;" vertex="1" parent="6">
                    <mxGeometry x="60" y="12" width="110" height="26" as="geometry"/>
                </mxCell>
                <mxCell id="8" value="localhost:3000" style="strokeWidth=1;shadow=0;dashed=0;align=center;html=1;shape=mxgraph.mockup.containers.anchor;rSize=0;fontSize=17;fontColor=#666666;align=left;" vertex="1" parent="6">
                    <mxGeometry x="130" y="60" width="250" height="26" as="geometry"/>
                </mxCell>
                <mxCell id="30" style="edgeStyle=orthogonalEdgeStyle;rounded=0;html=1;exitX=0;exitY=0.75;entryX=1;entryY=0.75;jettySize=auto;orthogonalLoop=1;strokeWidth=3;fontSize=18;" edge="1" parent="1" source="25" target="4">
                    <mxGeometry relative="1" as="geometry"/>
                </mxCell>
                <mxCell id="25" value="Cache Server" style="rounded=0;whiteSpace=wrap;html=1;strokeWidth=1;fontSize=16;align=center;" vertex="1" parent="1">
                    <mxGeometry x="1150" y="404" width="82" height="60" as="geometry"/>
                </mxCell>
                <mxCell id="26" style="edgeStyle=orthogonalEdgeStyle;rounded=0;html=1;exitX=1;exitY=0.5;jettySize=auto;orthogonalLoop=1;strokeWidth=3;fontSize=16;" edge="1" parent="1">
                    <mxGeometry relative="1" as="geometry">
                        <mxPoint x="1232.3333333333333" y="420" as="sourcePoint"/>
                        <mxPoint x="1316" y="420" as="targetPoint"/>
                    </mxGeometry>
                </mxCell>
                <mxCell id="29" style="edgeStyle=orthogonalEdgeStyle;rounded=0;html=1;exitX=0;exitY=0.75;entryX=1;entryY=0.75;jettySize=auto;orthogonalLoop=1;strokeWidth=3;fontSize=18;" edge="1" parent="1" source="27" target="25">
                    <mxGeometry relative="1" as="geometry"/>
                </mxCell>
                <mxCell id="27" value="MongoDB" style="rounded=0;whiteSpace=wrap;html=1;strokeWidth=1;fontSize=16;align=center;" vertex="1" parent="1">
                    <mxGeometry x="1316" y="404" width="82" height="60" as="geometry"/>
                </mxCell>
                <mxCell id="31" value="Has this query been executed before?" style="text;html=1;strokeColor=none;fillColor=none;align=center;verticalAlign=middle;whiteSpace=wrap;rounded=0;fontSize=12;fontStyle=2" vertex="1" parent="1">
                    <mxGeometry x="1132" y="366" width="119" height="32" as="geometry"/>
                </mxCell>
                <mxCell id="32" value="Execute query" style="text;html=1;strokeColor=none;fillColor=none;align=center;verticalAlign=middle;whiteSpace=wrap;rounded=0;fontSize=12;fontStyle=2" vertex="1" parent="1">
                    <mxGeometry x="1298" y="380" width="119" height="18" as="geometry"/>
                </mxCell>
                <mxCell id="33" value="Store result of query on cache server" style="text;html=1;strokeColor=none;fillColor=none;align=center;verticalAlign=middle;whiteSpace=wrap;rounded=0;fontSize=12;fontStyle=2" vertex="1" parent="1">
                    <mxGeometry x="1132" y="470" width="119" height="18" as="geometry"/>
                </mxCell>
            </root>
        </mxGraphModel>
    </diagram>
    <diagram name="09 - cache" id="_5AiS-H58ymp42EMzwOO">
        <mxGraphModel dx="990" dy="430" grid="1" gridSize="10" guides="1" tooltips="1" connect="1" arrows="1" fold="1" page="1" pageScale="1" pageWidth="3300" pageHeight="4681" background="#ffffff" math="0" shadow="0">
            <root>
                <mxCell id="0"/>
                <mxCell id="1" parent="0"/>
                <mxCell id="2" style="edgeStyle=orthogonalEdgeStyle;rounded=0;html=1;exitX=0.5;exitY=1;jettySize=auto;orthogonalLoop=1;strokeWidth=3;fontSize=16;" edge="1" parent="1" source="3" target="7">
                    <mxGeometry relative="1" as="geometry"/>
                </mxCell>
                <mxCell id="3" value="Visit localhost:3000/blogs" style="rounded=0;whiteSpace=wrap;html=1;strokeWidth=1;fontSize=16;align=center;" vertex="1" parent="1">
                    <mxGeometry x="300" y="70" width="280" height="40" as="geometry"/>
                </mxCell>
                <mxCell id="4" value="" style="endArrow=classic;html=1;strokeWidth=3;fontSize=16;" edge="1" parent="1">
                    <mxGeometry width="50" height="50" relative="1" as="geometry">
                        <mxPoint x="280" y="70" as="sourcePoint"/>
                        <mxPoint x="280" y="500" as="targetPoint"/>
                    </mxGeometry>
                </mxCell>
                <mxCell id="5" value="Time" style="text;html=1;strokeColor=none;fillColor=none;align=center;verticalAlign=middle;whiteSpace=wrap;rounded=0;fontSize=16;" vertex="1" parent="1">
                    <mxGeometry x="230" y="70" width="40" height="20" as="geometry"/>
                </mxCell>
                <mxCell id="6" style="edgeStyle=orthogonalEdgeStyle;rounded=0;html=1;exitX=0.5;exitY=1;jettySize=auto;orthogonalLoop=1;strokeWidth=3;fontSize=16;" edge="1" parent="1" source="7" target="9">
                    <mxGeometry relative="1" as="geometry"/>
                </mxCell>
                <mxCell id="7" value="React app loads in browser" style="rounded=0;whiteSpace=wrap;html=1;strokeWidth=1;fontSize=16;align=center;" vertex="1" parent="1">
                    <mxGeometry x="300" y="135" width="280" height="40" as="geometry"/>
                </mxCell>
                <mxCell id="8" style="edgeStyle=orthogonalEdgeStyle;rounded=0;html=1;exitX=0.5;exitY=1;entryX=0.5;entryY=0;jettySize=auto;orthogonalLoop=1;strokeWidth=3;fontSize=16;" edge="1" parent="1" source="9" target="11">
                    <mxGeometry relative="1" as="geometry"/>
                </mxCell>
                <mxCell id="9" value="React app needs details about the current user and their blogs" style="rounded=0;whiteSpace=wrap;html=1;strokeWidth=1;fontSize=16;align=center;" vertex="1" parent="1">
                    <mxGeometry x="300" y="200" width="280" height="40" as="geometry"/>
                </mxCell>
                <mxCell id="10" style="edgeStyle=orthogonalEdgeStyle;rounded=0;html=1;exitX=0.5;exitY=1;entryX=0.5;entryY=0;jettySize=auto;orthogonalLoop=1;strokeWidth=3;fontSize=16;" edge="1" parent="1" source="11" target="13">
                    <mxGeometry relative="1" as="geometry"/>
                </mxCell>
                <mxCell id="11" value="React app makes requests to get current user and blog list to backend" style="rounded=0;whiteSpace=wrap;html=1;strokeWidth=1;fontSize=16;align=center;" vertex="1" parent="1">
                    <mxGeometry x="300" y="265" width="280" height="40" as="geometry"/>
                </mxCell>
                <mxCell id="28" style="edgeStyle=orthogonalEdgeStyle;rounded=0;html=1;exitX=0.5;exitY=1;jettySize=auto;orthogonalLoop=1;strokeWidth=3;fontSize=12;" edge="1" parent="1" source="13" target="17">
                    <mxGeometry relative="1" as="geometry"/>
                </mxCell>
                <mxCell id="13" value="Express route handler sees request, tells Mongoose to get records" style="rounded=0;whiteSpace=wrap;html=1;strokeWidth=1;fontSize=16;align=center;" vertex="1" parent="1">
                    <mxGeometry x="300" y="330" width="280" height="40" as="geometry"/>
                </mxCell>
                <mxCell id="25" style="edgeStyle=orthogonalEdgeStyle;rounded=0;html=1;exitX=1;exitY=0.5;jettySize=auto;orthogonalLoop=1;strokeWidth=3;fontSize=16;" edge="1" parent="1" source="15" target="24">
                    <mxGeometry relative="1" as="geometry"/>
                </mxCell>
                <mxCell id="15" value="If data is in cache, return that immediately" style="rounded=0;whiteSpace=wrap;html=1;strokeWidth=1;fontSize=16;align=center;" vertex="1" parent="1">
                    <mxGeometry x="630" y="420" width="180" height="75" as="geometry"/>
                </mxCell>
                <mxCell id="23" style="edgeStyle=orthogonalEdgeStyle;rounded=0;html=1;exitX=1;exitY=0.5;jettySize=auto;orthogonalLoop=1;strokeWidth=3;fontSize=16;" edge="1" parent="1" source="16" target="22">
                    <mxGeometry relative="1" as="geometry"/>
                </mxCell>
                <mxCell id="16" value="If data is not in cache, go get it from MongoDB" style="rounded=0;whiteSpace=wrap;html=1;strokeWidth=1;fontSize=16;align=center;" vertex="1" parent="1">
                    <mxGeometry x="630" y="320" width="180" height="75" as="geometry"/>
                </mxCell>
                <mxCell id="19" style="edgeStyle=orthogonalEdgeStyle;rounded=0;html=1;exitX=1;exitY=0.75;entryX=0;entryY=0.5;jettySize=auto;orthogonalLoop=1;strokeWidth=3;fontSize=16;" edge="1" parent="1" source="17" target="15">
                    <mxGeometry relative="1" as="geometry"/>
                </mxCell>
                <mxCell id="21" style="edgeStyle=orthogonalEdgeStyle;rounded=0;html=1;exitX=1;exitY=0.25;entryX=0;entryY=0.5;jettySize=auto;orthogonalLoop=1;strokeWidth=3;fontSize=16;" edge="1" parent="1" source="17" target="16">
                    <mxGeometry relative="1" as="geometry"/>
                </mxCell>
                <mxCell id="17" value="Mongoose looks at cache and sees if that data has already been fetched" style="rounded=0;whiteSpace=wrap;html=1;strokeWidth=1;fontSize=16;align=center;" vertex="1" parent="1">
                    <mxGeometry x="300" y="400" width="280" height="40" as="geometry"/>
                </mxCell>
                <mxCell id="27" style="edgeStyle=orthogonalEdgeStyle;rounded=0;html=1;exitX=1;exitY=0.5;jettySize=auto;orthogonalLoop=1;strokeWidth=3;fontSize=16;" edge="1" parent="1" source="22" target="26">
                    <mxGeometry relative="1" as="geometry"/>
                </mxCell>
                <mxCell id="22" value="Express responds to request" style="rounded=0;whiteSpace=wrap;html=1;strokeWidth=1;fontSize=16;align=center;" vertex="1" parent="1">
                    <mxGeometry x="832" y="320" width="180" height="75" as="geometry"/>
                </mxCell>
                <mxCell id="24" value="Express responds to request" style="rounded=0;whiteSpace=wrap;html=1;strokeWidth=1;fontSize=16;align=center;" vertex="1" parent="1">
                    <mxGeometry x="832" y="420" width="180" height="75" as="geometry"/>
                </mxCell>
                <mxCell id="26" value="Add fetched data to cache to speed up next query" style="rounded=0;whiteSpace=wrap;html=1;strokeWidth=1;fontSize=16;align=center;" vertex="1" parent="1">
                    <mxGeometry x="1030" y="320" width="180" height="75" as="geometry"/>
                </mxCell>
            </root>
        </mxGraphModel>
    </diagram>
    <diagram name="12 - cache" id="-n5n2lEWPdMUkpzYS1lt">
        <mxGraphModel dx="990" dy="430" grid="1" gridSize="10" guides="1" tooltips="1" connect="1" arrows="1" fold="1" page="1" pageScale="1" pageWidth="3300" pageHeight="4681" background="#ffffff" math="0" shadow="0">
            <root>
                <mxCell id="0"/>
                <mxCell id="1" parent="0"/>
                <mxCell id="17" style="edgeStyle=orthogonalEdgeStyle;rounded=0;html=1;exitX=1;exitY=0.25;entryX=0;entryY=0.25;jettySize=auto;orthogonalLoop=1;strokeWidth=3;fontSize=18;" edge="1" parent="1" source="2" target="4">
                    <mxGeometry relative="1" as="geometry"/>
                </mxCell>
                <mxCell id="2" value="Mongoose" style="rounded=0;whiteSpace=wrap;html=1;strokeWidth=1;fontSize=18;align=center;" vertex="1" parent="1">
                    <mxGeometry x="260" y="145" width="90" height="185" as="geometry"/>
                </mxCell>
                <mxCell id="19" style="edgeStyle=orthogonalEdgeStyle;rounded=0;html=1;exitX=1;exitY=0.25;entryX=0;entryY=0.25;jettySize=auto;orthogonalLoop=1;strokeWidth=3;fontSize=18;" edge="1" parent="1" source="4" target="18">
                    <mxGeometry relative="1" as="geometry"/>
                </mxCell>
                <mxCell id="23" style="edgeStyle=orthogonalEdgeStyle;rounded=0;html=1;exitX=0;exitY=0.75;entryX=1;entryY=0.75;jettySize=auto;orthogonalLoop=1;strokeWidth=3;fontSize=18;" edge="1" parent="1" source="4" target="2">
                    <mxGeometry relative="1" as="geometry"/>
                </mxCell>
                <mxCell id="4" value="" style="rounded=0;whiteSpace=wrap;html=1;strokeWidth=1;fontSize=18;align=center;" vertex="1" parent="1">
                    <mxGeometry x="530" y="145" width="330" height="185" as="geometry"/>
                </mxCell>
                <mxCell id="6" value="Blog.findById('123')" style="rounded=0;whiteSpace=wrap;html=1;strokeWidth=1;fontSize=12;align=center;" vertex="1" parent="1">
                    <mxGeometry x="402" y="160" width="110" height="30" as="geometry"/>
                </mxCell>
                <mxCell id="7" value="Cache Server" style="text;html=1;strokeColor=none;fillColor=none;align=center;verticalAlign=middle;whiteSpace=wrap;rounded=0;fontSize=18;fontStyle=1" vertex="1" parent="1">
                    <mxGeometry x="615" y="123" width="155" height="20" as="geometry"/>
                </mxCell>
                <mxCell id="10" value="'456'" style="rounded=0;whiteSpace=wrap;html=1;strokeWidth=1;fontSize=18;align=center;" vertex="1" parent="1">
                    <mxGeometry x="540" y="165" width="80" height="30" as="geometry"/>
                </mxCell>
                <mxCell id="11" value="{ title: 'hi', content: 'bye' }" style="rounded=0;whiteSpace=wrap;html=1;strokeWidth=1;fontSize=18;align=center;" vertex="1" parent="1">
                    <mxGeometry x="620" y="165" width="230" height="30" as="geometry"/>
                </mxCell>
                <mxCell id="12" value="'295'" style="rounded=0;whiteSpace=wrap;html=1;strokeWidth=1;fontSize=18;align=center;" vertex="1" parent="1">
                    <mxGeometry x="540" y="195" width="80" height="30" as="geometry"/>
                </mxCell>
                <mxCell id="13" value="{ title: 'yo', content: 'there' }" style="rounded=0;whiteSpace=wrap;html=1;strokeWidth=1;fontSize=18;align=center;" vertex="1" parent="1">
                    <mxGeometry x="620" y="195" width="230" height="30" as="geometry"/>
                </mxCell>
                <mxCell id="15" value="'582'" style="rounded=0;whiteSpace=wrap;html=1;strokeWidth=1;fontSize=18;align=center;" vertex="1" parent="1">
                    <mxGeometry x="540" y="225" width="80" height="30" as="geometry"/>
                </mxCell>
                <mxCell id="16" value="{ title: 'got', content: 'blog' }" style="rounded=0;whiteSpace=wrap;html=1;strokeWidth=1;fontSize=18;align=center;" vertex="1" parent="1">
                    <mxGeometry x="620" y="225" width="230" height="30" as="geometry"/>
                </mxCell>
                <mxCell id="22" style="edgeStyle=orthogonalEdgeStyle;rounded=0;html=1;exitX=0;exitY=0.75;entryX=1;entryY=0.75;jettySize=auto;orthogonalLoop=1;strokeWidth=3;fontSize=18;" edge="1" parent="1" source="18" target="4">
                    <mxGeometry relative="1" as="geometry"/>
                </mxCell>
                <mxCell id="18" value="MongoDB" style="rounded=0;whiteSpace=wrap;html=1;strokeWidth=1;fontSize=18;align=center;" vertex="1" parent="1">
                    <mxGeometry x="1050" y="145" width="100" height="185" as="geometry"/>
                </mxCell>
                <mxCell id="31" value="'123'" style="rounded=0;whiteSpace=wrap;html=1;strokeWidth=1;fontSize=18;align=center;" vertex="1" parent="1">
                    <mxGeometry x="540" y="255" width="80" height="30" as="geometry"/>
                </mxCell>
                <mxCell id="32" value="&lt;span&gt;{ title: 'my', content: 'blog' }&lt;/span&gt;" style="rounded=0;whiteSpace=wrap;html=1;strokeWidth=1;fontSize=18;align=center;" vertex="1" parent="1">
                    <mxGeometry x="620" y="255" width="230" height="30" as="geometry"/>
                </mxCell>
            </root>
        </mxGraphModel>
    </diagram>
    <diagram name="13 - redis" id="FBuLvpnmWJD_TlbQAZMl">
        <mxGraphModel dx="825" dy="358" grid="1" gridSize="10" guides="1" tooltips="1" connect="1" arrows="1" fold="1" page="1" pageScale="1" pageWidth="3300" pageHeight="4681" background="#ffffff" math="0" shadow="0">
            <root>
                <mxCell id="0"/>
                <mxCell id="1" parent="0"/>
                <mxCell id="2" value="" style="rounded=0;whiteSpace=wrap;html=1;strokeWidth=1;fontSize=16;align=center;" vertex="1" parent="1">
                    <mxGeometry x="869" y="369" width="291" height="130" as="geometry"/>
                </mxCell>
                <mxCell id="3" style="edgeStyle=orthogonalEdgeStyle;rounded=0;html=1;exitX=0;exitY=0.5;entryX=1.019;entryY=0.5;entryPerimeter=0;jettySize=auto;orthogonalLoop=1;strokeWidth=3;fontSize=16;" edge="1" parent="1" source="4" target="9">
                    <mxGeometry relative="1" as="geometry"/>
                </mxCell>
                <mxCell id="4" value="Express App" style="rounded=0;whiteSpace=wrap;html=1;strokeWidth=1;fontSize=16;align=center;" vertex="1" parent="1">
                    <mxGeometry x="886" y="404" width="74" height="60" as="geometry"/>
                </mxCell>
                <mxCell id="5" style="edgeStyle=orthogonalEdgeStyle;rounded=0;html=1;exitX=0;exitY=0.5;jettySize=auto;orthogonalLoop=1;strokeWidth=3;fontSize=16;" edge="1" parent="1" source="7" target="4">
                    <mxGeometry relative="1" as="geometry"/>
                </mxCell>
                <mxCell id="7" value="Mongoose" style="rounded=0;whiteSpace=wrap;html=1;strokeWidth=1;fontSize=16;align=center;" vertex="1" parent="1">
                    <mxGeometry x="984" y="404" width="82" height="60" as="geometry"/>
                </mxCell>
                <mxCell id="8" value="Our Local Machine" style="text;html=1;strokeColor=none;fillColor=none;align=center;verticalAlign=middle;whiteSpace=wrap;rounded=0;fontSize=16;" vertex="1" parent="1">
                    <mxGeometry x="897" y="349" width="155" height="20" as="geometry"/>
                </mxCell>
                <mxCell id="9" value="" style="strokeWidth=1;shadow=0;dashed=0;align=center;html=1;shape=mxgraph.mockup.containers.browserWindow;rSize=0;fillColor=#ffffff;strokeColor=#666666;mainText=,;recursiveResize=0;fontSize=16;" vertex="1" parent="1">
                    <mxGeometry x="580" y="344" width="264" height="180" as="geometry"/>
                </mxCell>
                <mxCell id="10" value="Page 1" style="strokeWidth=1;shadow=0;dashed=0;align=center;html=1;shape=mxgraph.mockup.containers.anchor;fontSize=17;fontColor=#666666;align=left;" vertex="1" parent="9">
                    <mxGeometry x="60" y="12" width="110" height="26" as="geometry"/>
                </mxCell>
                <mxCell id="11" value="localhost:3000" style="strokeWidth=1;shadow=0;dashed=0;align=center;html=1;shape=mxgraph.mockup.containers.anchor;rSize=0;fontSize=17;fontColor=#666666;align=left;" vertex="1" parent="9">
                    <mxGeometry x="130" y="60" width="250" height="26" as="geometry"/>
                </mxCell>
                <mxCell id="23" style="edgeStyle=orthogonalEdgeStyle;rounded=0;html=1;exitX=1;exitY=0.5;jettySize=auto;orthogonalLoop=1;strokeWidth=3;fontSize=18;" edge="1" parent="1" source="13" target="16">
                    <mxGeometry relative="1" as="geometry"/>
                </mxCell>
                <mxCell id="13" value="Redis" style="rounded=0;whiteSpace=wrap;html=1;strokeWidth=1;fontSize=16;align=center;" vertex="1" parent="1">
                    <mxGeometry x="1200" y="404" width="82" height="60" as="geometry"/>
                </mxCell>
                <mxCell id="16" value="MongoDB" style="rounded=0;whiteSpace=wrap;html=1;strokeWidth=1;fontSize=16;align=center;" vertex="1" parent="1">
                    <mxGeometry x="1316" y="404" width="82" height="60" as="geometry"/>
                </mxCell>
                <mxCell id="22" style="edgeStyle=orthogonalEdgeStyle;rounded=0;html=1;exitX=1;exitY=0.5;jettySize=auto;orthogonalLoop=1;strokeWidth=3;fontSize=18;" edge="1" parent="1" source="21" target="13">
                    <mxGeometry relative="1" as="geometry"/>
                </mxCell>
                <mxCell id="21" value="node-redis" style="rounded=0;whiteSpace=wrap;html=1;strokeWidth=1;fontSize=16;align=center;" vertex="1" parent="1">
                    <mxGeometry x="1066" y="404" width="82" height="60" as="geometry"/>
                </mxCell>
            </root>
        </mxGraphModel>
    </diagram>
    <diagram name="14 - scaling" id="xs266iOud2E3QhuU7sWl">
        <mxGraphModel dx="825" dy="358" grid="1" gridSize="10" guides="1" tooltips="1" connect="1" arrows="1" fold="1" page="1" pageScale="1" pageWidth="3300" pageHeight="4681" background="#ffffff" math="0" shadow="0">
            <root>
                <mxCell id="0"/>
                <mxCell id="1" parent="0"/>
                <mxCell id="8" value="" style="strokeWidth=1;shadow=0;dashed=0;align=center;html=1;shape=mxgraph.mockup.containers.browserWindow;rSize=0;fillColor=#ffffff;strokeColor=#666666;mainText=,;recursiveResize=0;fontSize=16;" vertex="1" parent="1">
                    <mxGeometry x="470" y="265" width="264" height="180" as="geometry"/>
                </mxCell>
                <mxCell id="9" value="Page 1" style="strokeWidth=1;shadow=0;dashed=0;align=center;html=1;shape=mxgraph.mockup.containers.anchor;fontSize=17;fontColor=#666666;align=left;" vertex="1" parent="8">
                    <mxGeometry x="60" y="12" width="110" height="26" as="geometry"/>
                </mxCell>
                <mxCell id="10" value="localhost:3000" style="strokeWidth=1;shadow=0;dashed=0;align=center;html=1;shape=mxgraph.mockup.containers.anchor;rSize=0;fontSize=17;fontColor=#666666;align=left;" vertex="1" parent="8">
                    <mxGeometry x="130" y="60" width="250" height="26" as="geometry"/>
                </mxCell>
                <mxCell id="11" style="edgeStyle=orthogonalEdgeStyle;rounded=0;html=1;exitX=1;exitY=0.5;jettySize=auto;orthogonalLoop=1;strokeWidth=3;fontSize=18;" edge="1" source="12" target="13" parent="1">
                    <mxGeometry relative="1" as="geometry"/>
                </mxCell>
                <mxCell id="12" value="Redis" style="rounded=0;whiteSpace=wrap;html=1;strokeWidth=1;fontSize=16;align=center;" vertex="1" parent="1">
                    <mxGeometry x="1092" y="335" width="82" height="60" as="geometry"/>
                </mxCell>
                <mxCell id="13" value="MongoDB" style="rounded=0;whiteSpace=wrap;html=1;strokeWidth=1;fontSize=16;align=center;" vertex="1" parent="1">
                    <mxGeometry x="1208" y="335" width="82" height="60" as="geometry"/>
                </mxCell>
                <mxCell id="21" style="edgeStyle=orthogonalEdgeStyle;rounded=0;html=1;exitX=1;exitY=0.25;entryX=0;entryY=0.5;jettySize=auto;orthogonalLoop=1;strokeWidth=3;fontSize=18;" edge="1" parent="1" source="16" target="17">
                    <mxGeometry relative="1" as="geometry"/>
                </mxCell>
                <mxCell id="22" style="edgeStyle=orthogonalEdgeStyle;rounded=0;html=1;exitX=1;exitY=0.5;jettySize=auto;orthogonalLoop=1;strokeWidth=3;fontSize=18;" edge="1" parent="1" source="16" target="19">
                    <mxGeometry relative="1" as="geometry"/>
                </mxCell>
                <mxCell id="23" style="edgeStyle=orthogonalEdgeStyle;rounded=0;html=1;exitX=1;exitY=0.75;entryX=0;entryY=0.5;jettySize=auto;orthogonalLoop=1;strokeWidth=3;fontSize=18;" edge="1" parent="1" source="16" target="20">
                    <mxGeometry relative="1" as="geometry"/>
                </mxCell>
                <mxCell id="27" style="edgeStyle=orthogonalEdgeStyle;rounded=0;html=1;exitX=0;exitY=0.5;entryX=1;entryY=0.556;entryPerimeter=0;jettySize=auto;orthogonalLoop=1;strokeWidth=3;fontSize=18;" edge="1" parent="1" source="16" target="8">
                    <mxGeometry relative="1" as="geometry"/>
                </mxCell>
                <mxCell id="16" value="Load Balancer" style="rounded=0;whiteSpace=wrap;html=1;strokeWidth=1;fontSize=16;align=center;" vertex="1" parent="1">
                    <mxGeometry x="802" y="335" width="82" height="60" as="geometry"/>
                </mxCell>
                <mxCell id="24" style="edgeStyle=orthogonalEdgeStyle;rounded=0;html=1;exitX=1;exitY=0.5;entryX=0;entryY=0.25;jettySize=auto;orthogonalLoop=1;strokeWidth=3;fontSize=18;" edge="1" parent="1" source="17" target="12">
                    <mxGeometry relative="1" as="geometry"/>
                </mxCell>
                <mxCell id="17" value="Node Server" style="rounded=0;whiteSpace=wrap;html=1;strokeWidth=1;fontSize=16;align=center;" vertex="1" parent="1">
                    <mxGeometry x="952" y="261" width="82" height="60" as="geometry"/>
                </mxCell>
                <mxCell id="25" style="edgeStyle=orthogonalEdgeStyle;rounded=0;html=1;exitX=1;exitY=0.5;entryX=0;entryY=0.5;jettySize=auto;orthogonalLoop=1;strokeWidth=3;fontSize=18;" edge="1" parent="1" source="19" target="12">
                    <mxGeometry relative="1" as="geometry"/>
                </mxCell>
                <mxCell id="19" value="Node Server" style="rounded=0;whiteSpace=wrap;html=1;strokeWidth=1;fontSize=16;align=center;" vertex="1" parent="1">
                    <mxGeometry x="952" y="335" width="82" height="60" as="geometry"/>
                </mxCell>
                <mxCell id="26" style="edgeStyle=orthogonalEdgeStyle;rounded=0;html=1;exitX=1;exitY=0.5;entryX=0;entryY=0.75;jettySize=auto;orthogonalLoop=1;strokeWidth=3;fontSize=18;" edge="1" parent="1" source="20" target="12">
                    <mxGeometry relative="1" as="geometry"/>
                </mxCell>
                <mxCell id="20" value="Node Server" style="rounded=0;whiteSpace=wrap;html=1;strokeWidth=1;fontSize=16;align=center;" vertex="1" parent="1">
                    <mxGeometry x="952" y="406" width="82" height="60" as="geometry"/>
                </mxCell>
            </root>
        </mxGraphModel>
    </diagram>
    <diagram name="15 - redis" id="JrssoAzHu7OhZNFiurSp">
        <mxGraphModel dx="990" dy="430" grid="1" gridSize="10" guides="1" tooltips="1" connect="1" arrows="1" fold="1" page="1" pageScale="1" pageWidth="3300" pageHeight="4681" background="#ffffff" math="0" shadow="0">
            <root>
                <mxCell id="0"/>
                <mxCell id="1" parent="0"/>
                <mxCell id="2" value="" style="rounded=0;whiteSpace=wrap;html=1;strokeWidth=1;fontSize=18;align=center;" vertex="1" parent="1">
                    <mxGeometry x="540" y="110" width="360" height="350" as="geometry"/>
                </mxCell>
                <mxCell id="3" value="Redis" style="text;html=1;strokeColor=none;fillColor=none;align=center;verticalAlign=middle;whiteSpace=wrap;rounded=0;fontSize=22;fontStyle=1" vertex="1" parent="1">
                    <mxGeometry x="700" y="80" width="40" height="20" as="geometry"/>
                </mxCell>
                <mxCell id="4" value="Key" style="rounded=0;whiteSpace=wrap;html=1;strokeWidth=1;fontSize=18;align=center;fillColor=#dae8fc;strokeColor=#6c8ebf;" vertex="1" parent="1">
                    <mxGeometry x="560" y="130" width="160" height="60" as="geometry"/>
                </mxCell>
                <mxCell id="5" value="Value" style="rounded=0;whiteSpace=wrap;html=1;strokeWidth=1;fontSize=18;align=center;fillColor=#dae8fc;strokeColor=#6c8ebf;" vertex="1" parent="1">
                    <mxGeometry x="720" y="130" width="160" height="60" as="geometry"/>
                </mxCell>
                <mxCell id="7" value="'hi'" style="rounded=0;whiteSpace=wrap;html=1;strokeWidth=1;fontSize=22;align=center;" vertex="1" parent="1">
                    <mxGeometry x="560" y="190" width="160" height="50" as="geometry"/>
                </mxCell>
                <mxCell id="8" value="'there'" style="rounded=0;whiteSpace=wrap;html=1;strokeWidth=1;fontSize=22;align=center;" vertex="1" parent="1">
                    <mxGeometry x="720" y="190" width="160" height="50" as="geometry"/>
                </mxCell>
                <mxCell id="10" value="node-redis" style="text;html=1;strokeColor=none;fillColor=none;align=center;verticalAlign=middle;whiteSpace=wrap;rounded=0;fontSize=22;fontStyle=1" vertex="1" parent="1">
                    <mxGeometry x="330" y="168" width="120" height="20" as="geometry"/>
                </mxCell>
                <mxCell id="12" style="edgeStyle=orthogonalEdgeStyle;rounded=0;html=1;exitX=1;exitY=0.5;entryX=-0.008;entryY=0.299;entryPerimeter=0;jettySize=auto;orthogonalLoop=1;strokeWidth=3;fontSize=22;" edge="1" parent="1" source="11" target="2">
                    <mxGeometry relative="1" as="geometry"/>
                </mxCell>
                <mxCell id="11" value="set('hi', 'there')" style="rounded=0;whiteSpace=wrap;html=1;strokeWidth=1;fontSize=22;align=center;" vertex="1" parent="1">
                    <mxGeometry x="310" y="190" width="160" height="50" as="geometry"/>
                </mxCell>
                <mxCell id="13" value="node-redis" style="text;html=1;strokeColor=none;fillColor=none;align=center;verticalAlign=middle;whiteSpace=wrap;rounded=0;fontSize=22;fontStyle=1" vertex="1" parent="1">
                    <mxGeometry x="1059" y="168" width="120" height="20" as="geometry"/>
                </mxCell>
                <mxCell id="17" style="edgeStyle=orthogonalEdgeStyle;rounded=0;html=1;exitX=0.5;exitY=1;jettySize=auto;orthogonalLoop=1;strokeWidth=3;fontSize=18;" edge="1" parent="1" source="14" target="16">
                    <mxGeometry relative="1" as="geometry"/>
                </mxCell>
                <mxCell id="14" value="get('hi', (err, val) =&amp;gt; console.log(val))" style="rounded=0;whiteSpace=wrap;html=1;strokeWidth=1;fontSize=18;align=center;" vertex="1" parent="1">
                    <mxGeometry x="968" y="190" width="302" height="50" as="geometry"/>
                </mxCell>
                <mxCell id="15" style="edgeStyle=orthogonalEdgeStyle;rounded=0;html=1;exitX=1;exitY=0.5;entryX=-0.008;entryY=0.299;entryPerimeter=0;jettySize=auto;orthogonalLoop=1;strokeWidth=3;fontSize=22;" edge="1" parent="1">
                    <mxGeometry relative="1" as="geometry">
                        <mxPoint x="900" y="214.79999999999995" as="sourcePoint"/>
                        <mxPoint x="967.2" y="214.79999999999995" as="targetPoint"/>
                    </mxGeometry>
                </mxCell>
                <mxCell id="16" value="'there'" style="rounded=0;whiteSpace=wrap;html=1;strokeWidth=1;fontSize=18;align=center;" vertex="1" parent="1">
                    <mxGeometry x="1039" y="270" width="160" height="40" as="geometry"/>
                </mxCell>
            </root>
        </mxGraphModel>
    </diagram>
    <diagram name="16 - hset" id="KOlsVdMNAHnsgG_KnhY4">
        <mxGraphModel dx="990" dy="430" grid="1" gridSize="10" guides="1" tooltips="1" connect="1" arrows="1" fold="1" page="1" pageScale="1" pageWidth="3300" pageHeight="4681" background="#ffffff" math="0" shadow="0">
            <root>
                <mxCell id="0"/>
                <mxCell id="1" parent="0"/>
                <mxCell id="2" value="" style="rounded=0;whiteSpace=wrap;html=1;strokeWidth=1;fontSize=18;align=center;" vertex="1" parent="1">
                    <mxGeometry x="540" y="110" width="490" height="470" as="geometry"/>
                </mxCell>
                <mxCell id="3" value="Redis" style="text;html=1;strokeColor=none;fillColor=none;align=center;verticalAlign=middle;whiteSpace=wrap;rounded=0;fontSize=22;fontStyle=1" vertex="1" parent="1">
                    <mxGeometry x="763" y="80" width="40" height="20" as="geometry"/>
                </mxCell>
                <mxCell id="4" value="Key" style="rounded=0;whiteSpace=wrap;html=1;strokeWidth=1;fontSize=18;align=center;fillColor=#dae8fc;strokeColor=#6c8ebf;" vertex="1" parent="1">
                    <mxGeometry x="560" y="130" width="160" height="60" as="geometry"/>
                </mxCell>
                <mxCell id="5" value="Value" style="rounded=0;whiteSpace=wrap;html=1;strokeWidth=1;fontSize=18;align=center;fillColor=#dae8fc;strokeColor=#6c8ebf;" vertex="1" parent="1">
                    <mxGeometry x="763" y="130" width="250" height="60" as="geometry"/>
                </mxCell>
                <mxCell id="31" style="edgeStyle=orthogonalEdgeStyle;rounded=0;html=1;exitX=1;exitY=0.5;jettySize=auto;orthogonalLoop=1;strokeWidth=3;fontSize=18;" edge="1" parent="1" source="6" target="20">
                    <mxGeometry relative="1" as="geometry"/>
                </mxCell>
                <mxCell id="6" value="'spanish'" style="rounded=0;whiteSpace=wrap;html=1;strokeWidth=1;fontSize=22;align=center;" vertex="1" parent="1">
                    <mxGeometry x="560" y="240" width="160" height="150" as="geometry"/>
                </mxCell>
                <mxCell id="8" value="node-redis" style="text;html=1;strokeColor=none;fillColor=none;align=center;verticalAlign=middle;whiteSpace=wrap;rounded=0;fontSize=22;fontStyle=1" vertex="1" parent="1">
                    <mxGeometry x="265" y="204" width="120" height="20" as="geometry"/>
                </mxCell>
                <mxCell id="9" style="edgeStyle=orthogonalEdgeStyle;rounded=0;html=1;exitX=1;exitY=0.5;entryX=-0.008;entryY=0.299;entryPerimeter=0;jettySize=auto;orthogonalLoop=1;strokeWidth=3;fontSize=22;" edge="1" parent="1" source="10" target="2">
                    <mxGeometry relative="1" as="geometry"/>
                </mxCell>
                <mxCell id="10" value="hset('spanish', 'red', 'rojo')" style="rounded=0;whiteSpace=wrap;html=1;strokeWidth=1;fontSize=22;align=center;" vertex="1" parent="1">
                    <mxGeometry x="180" y="226" width="290" height="50" as="geometry"/>
                </mxCell>
                <mxCell id="11" value="node-redis" style="text;html=1;strokeColor=none;fillColor=none;align=center;verticalAlign=middle;whiteSpace=wrap;rounded=0;fontSize=22;fontStyle=1" vertex="1" parent="1">
                    <mxGeometry x="1251" y="220" width="120" height="20" as="geometry"/>
                </mxCell>
                <mxCell id="12" style="edgeStyle=orthogonalEdgeStyle;rounded=0;html=1;exitX=0.5;exitY=1;jettySize=auto;orthogonalLoop=1;strokeWidth=3;fontSize=18;" edge="1" parent="1" source="13" target="15">
                    <mxGeometry relative="1" as="geometry"/>
                </mxCell>
                <mxCell id="13" value="hget('spanish',&amp;nbsp;&lt;span&gt;'red', (err, val) =&amp;gt; console.log(val))&lt;/span&gt;" style="rounded=0;whiteSpace=wrap;html=1;strokeWidth=1;fontSize=18;align=center;" vertex="1" parent="1">
                    <mxGeometry x="1100" y="246" width="422" height="50" as="geometry"/>
                </mxCell>
                <mxCell id="14" style="edgeStyle=orthogonalEdgeStyle;rounded=0;html=1;exitX=1;exitY=0.5;entryX=-0.008;entryY=0.299;entryPerimeter=0;jettySize=auto;orthogonalLoop=1;strokeWidth=3;fontSize=22;" edge="1" parent="1">
                    <mxGeometry relative="1" as="geometry">
                        <mxPoint x="1033" y="270.79999999999995" as="sourcePoint"/>
                        <mxPoint x="1100.2" y="270.79999999999995" as="targetPoint"/>
                    </mxGeometry>
                </mxCell>
                <mxCell id="15" value="'rojo'" style="rounded=0;whiteSpace=wrap;html=1;strokeWidth=1;fontSize=18;align=center;" vertex="1" parent="1">
                    <mxGeometry x="1231" y="340" width="160" height="40" as="geometry"/>
                </mxCell>
                <mxCell id="16" value="Nested Key" style="rounded=0;whiteSpace=wrap;html=1;strokeWidth=1;fontSize=18;align=center;fillColor=#dae8fc;strokeColor=#6c8ebf;" vertex="1" parent="1">
                    <mxGeometry x="763" y="190" width="125" height="50" as="geometry"/>
                </mxCell>
                <mxCell id="17" value="Nested Value" style="rounded=0;whiteSpace=wrap;html=1;strokeWidth=1;fontSize=18;align=center;fillColor=#dae8fc;strokeColor=#6c8ebf;" vertex="1" parent="1">
                    <mxGeometry x="888" y="190" width="125" height="50" as="geometry"/>
                </mxCell>
                <mxCell id="18" value="'red'" style="rounded=0;whiteSpace=wrap;html=1;strokeWidth=1;fontSize=22;align=center;" vertex="1" parent="1">
                    <mxGeometry x="763" y="240" width="125" height="50" as="geometry"/>
                </mxCell>
                <mxCell id="19" value="'rojo'" style="rounded=0;whiteSpace=wrap;html=1;strokeWidth=1;fontSize=22;align=center;" vertex="1" parent="1">
                    <mxGeometry x="888" y="240" width="125" height="50" as="geometry"/>
                </mxCell>
                <mxCell id="20" value="'orange'" style="rounded=0;whiteSpace=wrap;html=1;strokeWidth=1;fontSize=22;align=center;" vertex="1" parent="1">
                    <mxGeometry x="763" y="290" width="125" height="50" as="geometry"/>
                </mxCell>
                <mxCell id="21" value="'naranja'" style="rounded=0;whiteSpace=wrap;html=1;strokeWidth=1;fontSize=22;align=center;" vertex="1" parent="1">
                    <mxGeometry x="888" y="290" width="125" height="50" as="geometry"/>
                </mxCell>
                <mxCell id="22" value="'blue'" style="rounded=0;whiteSpace=wrap;html=1;strokeWidth=1;fontSize=22;align=center;" vertex="1" parent="1">
                    <mxGeometry x="763" y="340" width="125" height="50" as="geometry"/>
                </mxCell>
                <mxCell id="23" value="'azul'" style="rounded=0;whiteSpace=wrap;html=1;strokeWidth=1;fontSize=22;align=center;" vertex="1" parent="1">
                    <mxGeometry x="888" y="340" width="125" height="50" as="geometry"/>
                </mxCell>
                <mxCell id="32" style="edgeStyle=orthogonalEdgeStyle;rounded=0;html=1;exitX=1;exitY=0.5;entryX=0;entryY=0.5;jettySize=auto;orthogonalLoop=1;strokeWidth=3;fontSize=18;" edge="1" parent="1" source="24" target="27">
                    <mxGeometry relative="1" as="geometry"/>
                </mxCell>
                <mxCell id="24" value="'german'" style="rounded=0;whiteSpace=wrap;html=1;strokeWidth=1;fontSize=22;align=center;" vertex="1" parent="1">
                    <mxGeometry x="560" y="410" width="160" height="150" as="geometry"/>
                </mxCell>
                <mxCell id="25" value="'red'" style="rounded=0;whiteSpace=wrap;html=1;strokeWidth=1;fontSize=22;align=center;" vertex="1" parent="1">
                    <mxGeometry x="763" y="410" width="125" height="50" as="geometry"/>
                </mxCell>
                <mxCell id="26" value="'rot'" style="rounded=0;whiteSpace=wrap;html=1;strokeWidth=1;fontSize=22;align=center;" vertex="1" parent="1">
                    <mxGeometry x="888" y="410" width="125" height="50" as="geometry"/>
                </mxCell>
                <mxCell id="27" value="'orange'" style="rounded=0;whiteSpace=wrap;html=1;strokeWidth=1;fontSize=22;align=center;" vertex="1" parent="1">
                    <mxGeometry x="763" y="460" width="125" height="50" as="geometry"/>
                </mxCell>
                <mxCell id="28" value="'orange'" style="rounded=0;whiteSpace=wrap;html=1;strokeWidth=1;fontSize=22;align=center;" vertex="1" parent="1">
                    <mxGeometry x="888" y="460" width="125" height="50" as="geometry"/>
                </mxCell>
                <mxCell id="29" value="'blue'" style="rounded=0;whiteSpace=wrap;html=1;strokeWidth=1;fontSize=22;align=center;" vertex="1" parent="1">
                    <mxGeometry x="763" y="510" width="125" height="50" as="geometry"/>
                </mxCell>
                <mxCell id="30" value="'blau'" style="rounded=0;whiteSpace=wrap;html=1;strokeWidth=1;fontSize=22;align=center;" vertex="1" parent="1">
                    <mxGeometry x="888" y="510" width="125" height="50" as="geometry"/>
                </mxCell>
            </root>
        </mxGraphModel>
    </diagram>
    <diagram name="17 - alongside" id="McQEQ3IJc7xPo8KweUNc">
        <mxGraphModel dx="1238" dy="537" grid="1" gridSize="10" guides="1" tooltips="1" connect="1" arrows="1" fold="1" page="1" pageScale="1" pageWidth="3300" pageHeight="4681" background="#ffffff" math="0" shadow="0">
            <root>
                <mxCell id="0"/>
                <mxCell id="1" parent="0"/>
                <mxCell id="2" value="" style="rounded=0;whiteSpace=wrap;html=1;strokeWidth=1;fontSize=18;align=center;" vertex="1" parent="1">
                    <mxGeometry x="540" y="110" width="460" height="570" as="geometry"/>
                </mxCell>
                <mxCell id="3" value="Redis" style="text;html=1;strokeColor=none;fillColor=none;align=center;verticalAlign=middle;whiteSpace=wrap;rounded=0;fontSize=22;fontStyle=1" vertex="1" parent="1">
                    <mxGeometry x="763" y="80" width="40" height="20" as="geometry"/>
                </mxCell>
                <mxCell id="4" value="Key" style="rounded=0;whiteSpace=wrap;html=1;strokeWidth=1;fontSize=18;align=center;fillColor=#dae8fc;strokeColor=#6c8ebf;" vertex="1" parent="1">
                    <mxGeometry x="560" y="130" width="160" height="60" as="geometry"/>
                </mxCell>
                <mxCell id="5" value="Value" style="rounded=0;whiteSpace=wrap;html=1;strokeWidth=1;fontSize=18;align=center;fillColor=#dae8fc;strokeColor=#6c8ebf;" vertex="1" parent="1">
                    <mxGeometry x="720" y="130" width="250" height="60" as="geometry"/>
                </mxCell>
                <mxCell id="6" value="'spanish'" style="rounded=0;whiteSpace=wrap;html=1;strokeWidth=1;fontSize=22;align=center;" vertex="1" parent="1">
                    <mxGeometry x="560" y="240" width="160" height="150" as="geometry"/>
                </mxCell>
                <mxCell id="15" value="Nested Key" style="rounded=0;whiteSpace=wrap;html=1;strokeWidth=1;fontSize=18;align=center;fillColor=#dae8fc;strokeColor=#6c8ebf;" vertex="1" parent="1">
                    <mxGeometry x="720" y="190" width="125" height="50" as="geometry"/>
                </mxCell>
                <mxCell id="16" value="Nested Value" style="rounded=0;whiteSpace=wrap;html=1;strokeWidth=1;fontSize=18;align=center;fillColor=#dae8fc;strokeColor=#6c8ebf;" vertex="1" parent="1">
                    <mxGeometry x="845" y="190" width="125" height="50" as="geometry"/>
                </mxCell>
                <mxCell id="17" value="'red'" style="rounded=0;whiteSpace=wrap;html=1;strokeWidth=1;fontSize=22;align=center;" vertex="1" parent="1">
                    <mxGeometry x="720" y="240" width="125" height="50" as="geometry"/>
                </mxCell>
                <mxCell id="18" value="'rojo'" style="rounded=0;whiteSpace=wrap;html=1;strokeWidth=1;fontSize=22;align=center;" vertex="1" parent="1">
                    <mxGeometry x="845" y="240" width="125" height="50" as="geometry"/>
                </mxCell>
                <mxCell id="19" value="'orange'" style="rounded=0;whiteSpace=wrap;html=1;strokeWidth=1;fontSize=22;align=center;" vertex="1" parent="1">
                    <mxGeometry x="720" y="290" width="125" height="50" as="geometry"/>
                </mxCell>
                <mxCell id="20" value="'naranja'" style="rounded=0;whiteSpace=wrap;html=1;strokeWidth=1;fontSize=22;align=center;" vertex="1" parent="1">
                    <mxGeometry x="845" y="290" width="125" height="50" as="geometry"/>
                </mxCell>
                <mxCell id="21" value="'blue'" style="rounded=0;whiteSpace=wrap;html=1;strokeWidth=1;fontSize=22;align=center;" vertex="1" parent="1">
                    <mxGeometry x="720" y="340" width="125" height="50" as="geometry"/>
                </mxCell>
                <mxCell id="22" value="'azul'" style="rounded=0;whiteSpace=wrap;html=1;strokeWidth=1;fontSize=22;align=center;" vertex="1" parent="1">
                    <mxGeometry x="845" y="340" width="125" height="50" as="geometry"/>
                </mxCell>
                <mxCell id="23" value="'german'" style="rounded=0;whiteSpace=wrap;html=1;strokeWidth=1;fontSize=22;align=center;" vertex="1" parent="1">
                    <mxGeometry x="560" y="410" width="160" height="150" as="geometry"/>
                </mxCell>
                <mxCell id="24" value="'red'" style="rounded=0;whiteSpace=wrap;html=1;strokeWidth=1;fontSize=22;align=center;" vertex="1" parent="1">
                    <mxGeometry x="720" y="410" width="125" height="50" as="geometry"/>
                </mxCell>
                <mxCell id="25" value="'rot'" style="rounded=0;whiteSpace=wrap;html=1;strokeWidth=1;fontSize=22;align=center;" vertex="1" parent="1">
                    <mxGeometry x="845" y="410" width="125" height="50" as="geometry"/>
                </mxCell>
                <mxCell id="26" value="'orange'" style="rounded=0;whiteSpace=wrap;html=1;strokeWidth=1;fontSize=22;align=center;" vertex="1" parent="1">
                    <mxGeometry x="720" y="460" width="125" height="50" as="geometry"/>
                </mxCell>
                <mxCell id="27" value="'orange'" style="rounded=0;whiteSpace=wrap;html=1;strokeWidth=1;fontSize=22;align=center;" vertex="1" parent="1">
                    <mxGeometry x="845" y="460" width="125" height="50" as="geometry"/>
                </mxCell>
                <mxCell id="28" value="'blue'" style="rounded=0;whiteSpace=wrap;html=1;strokeWidth=1;fontSize=22;align=center;" vertex="1" parent="1">
                    <mxGeometry x="720" y="510" width="125" height="50" as="geometry"/>
                </mxCell>
                <mxCell id="29" value="'blau'" style="rounded=0;whiteSpace=wrap;html=1;strokeWidth=1;fontSize=22;align=center;" vertex="1" parent="1">
                    <mxGeometry x="845" y="510" width="125" height="50" as="geometry"/>
                </mxCell>
                <mxCell id="30" value="'hi'" style="rounded=0;whiteSpace=wrap;html=1;strokeWidth=1;fontSize=22;align=center;" vertex="1" parent="1">
                    <mxGeometry x="560" y="580" width="160" height="70" as="geometry"/>
                </mxCell>
                <mxCell id="31" value="'there'" style="rounded=0;whiteSpace=wrap;html=1;strokeWidth=1;fontSize=22;align=center;" vertex="1" parent="1">
                    <mxGeometry x="720" y="580" width="250" height="70" as="geometry"/>
                </mxCell>
            </root>
        </mxGraphModel>
    </diagram>
    <diagram name="19 - structure" id="vOZfy9JOZ0EQJHDGk9G7">
        <mxGraphModel dx="990" dy="430" grid="1" gridSize="10" guides="1" tooltips="1" connect="1" arrows="1" fold="1" page="1" pageScale="1" pageWidth="3300" pageHeight="4681" background="#ffffff" math="0" shadow="0">
            <root>
                <mxCell id="0"/>
                <mxCell id="1" parent="0"/>
                <mxCell id="2" value="" style="rounded=0;whiteSpace=wrap;html=1;strokeWidth=1;fontSize=18;align=center;" vertex="1" parent="1">
                    <mxGeometry x="540" y="110" width="500" height="260" as="geometry"/>
                </mxCell>
                <mxCell id="3" value="Redis" style="text;html=1;strokeColor=none;fillColor=none;align=center;verticalAlign=middle;whiteSpace=wrap;rounded=0;fontSize=22;fontStyle=1" vertex="1" parent="1">
                    <mxGeometry x="763" y="80" width="40" height="20" as="geometry"/>
                </mxCell>
                <mxCell id="4" value="Key" style="rounded=0;whiteSpace=wrap;html=1;strokeWidth=1;fontSize=18;align=center;fillColor=#dae8fc;strokeColor=#6c8ebf;" vertex="1" parent="1">
                    <mxGeometry x="560" y="130" width="200" height="60" as="geometry"/>
                </mxCell>
                <mxCell id="5" value="Value" style="rounded=0;whiteSpace=wrap;html=1;strokeWidth=1;fontSize=18;align=center;fillColor=#dae8fc;strokeColor=#6c8ebf;" vertex="1" parent="1">
                    <mxGeometry x="760" y="130" width="250" height="60" as="geometry"/>
                </mxCell>
                <mxCell id="10" value="query" style="rounded=0;whiteSpace=wrap;html=1;strokeWidth=1;fontSize=22;align=center;" vertex="1" parent="1">
                    <mxGeometry x="560" y="190" width="200" height="50" as="geometry"/>
                </mxCell>
                <mxCell id="11" value="result of query" style="rounded=0;whiteSpace=wrap;html=1;strokeWidth=1;fontSize=22;align=center;" vertex="1" parent="1">
                    <mxGeometry x="760" y="190" width="250" height="50" as="geometry"/>
                </mxCell>
                <mxCell id="16" value="query" style="rounded=0;whiteSpace=wrap;html=1;strokeWidth=1;fontSize=22;align=center;" vertex="1" parent="1">
                    <mxGeometry x="560" y="240" width="200" height="50" as="geometry"/>
                </mxCell>
                <mxCell id="17" value="result of query" style="rounded=0;whiteSpace=wrap;html=1;strokeWidth=1;fontSize=22;align=center;" vertex="1" parent="1">
                    <mxGeometry x="760" y="240" width="250" height="50" as="geometry"/>
                </mxCell>
                <mxCell id="18" value="query" style="rounded=0;whiteSpace=wrap;html=1;strokeWidth=1;fontSize=22;align=center;" vertex="1" parent="1">
                    <mxGeometry x="560" y="290" width="200" height="50" as="geometry"/>
                </mxCell>
                <mxCell id="19" value="result of query" style="rounded=0;whiteSpace=wrap;html=1;strokeWidth=1;fontSize=22;align=center;" vertex="1" parent="1">
                    <mxGeometry x="760" y="290" width="250" height="50" as="geometry"/>
                </mxCell>
                <mxCell id="20" value="We want query keys that are &lt;i&gt;consistent &lt;/i&gt;but &lt;i&gt;unique&lt;/i&gt;&amp;nbsp;between query executions" style="text;html=1;strokeColor=none;fillColor=none;align=center;verticalAlign=middle;whiteSpace=wrap;rounded=0;fontSize=18;fontStyle=1" vertex="1" parent="1">
                    <mxGeometry x="595" y="390" width="390" height="20" as="geometry"/>
                </mxCell>
            </root>
        </mxGraphModel>
    </diagram>
    <diagram name="20 - query key" id="DAAVlV2k0KFQUwsYiHoe">
        <mxGraphModel dx="825" dy="358" grid="1" gridSize="10" guides="1" tooltips="1" connect="1" arrows="1" fold="1" page="1" pageScale="1" pageWidth="3300" pageHeight="4681" background="#ffffff" math="0" shadow="0">
            <root>
                <mxCell id="0"/>
                <mxCell id="1" parent="0"/>
                <mxCell id="22" style="edgeStyle=orthogonalEdgeStyle;rounded=0;html=1;exitX=1;exitY=0.5;jettySize=auto;orthogonalLoop=1;strokeWidth=3;fontSize=18;" edge="1" parent="1" source="20" target="14">
                    <mxGeometry relative="1" as="geometry"/>
                </mxCell>
                <mxCell id="20" value="" style="rounded=0;whiteSpace=wrap;html=1;strokeWidth=1;fontSize=18;align=center;" vertex="1" parent="1">
                    <mxGeometry x="390" y="300" width="380" height="150" as="geometry"/>
                </mxCell>
                <mxCell id="13" value="GET /api/blogs" style="rounded=0;whiteSpace=wrap;html=1;strokeWidth=1;fontSize=18;align=center;" vertex="1" parent="1">
                    <mxGeometry x="670" y="220" width="195" height="50" as="geometry"/>
                </mxCell>
                <mxCell id="14" value="Mongoose" style="rounded=0;whiteSpace=wrap;html=1;strokeWidth=1;fontSize=18;align=center;" vertex="1" parent="1">
                    <mxGeometry x="910" y="315" width="120" height="120" as="geometry"/>
                </mxCell>
                <mxCell id="16" value="req.user.id" style="rounded=0;whiteSpace=wrap;html=1;strokeWidth=1;fontSize=18;align=center;" vertex="1" parent="1">
                    <mxGeometry x="560" y="370" width="120" height="60" as="geometry"/>
                </mxCell>
                <mxCell id="17" value="In the" style="text;html=1;strokeColor=none;fillColor=none;align=center;verticalAlign=middle;whiteSpace=wrap;rounded=0;fontSize=18;" vertex="1" parent="1">
                    <mxGeometry x="490" y="330" width="70" height="20" as="geometry"/>
                </mxCell>
                <mxCell id="18" value="collection" style="text;html=1;strokeColor=none;fillColor=none;align=center;verticalAlign=middle;whiteSpace=wrap;rounded=0;fontSize=18;" vertex="1" parent="1">
                    <mxGeometry x="710" y="330" width="40" height="20" as="geometry"/>
                </mxCell>
                <mxCell id="19" value="find blogs with _user" style="text;html=1;strokeColor=none;fillColor=none;align=center;verticalAlign=middle;whiteSpace=wrap;rounded=0;fontSize=18;" vertex="1" parent="1">
                    <mxGeometry x="390" y="390" width="170" height="20" as="geometry"/>
                </mxCell>
            </root>
        </mxGraphModel>
    </diagram>
    <diagram name="18 - cache" id="loQZe4GgUBNjTuXr4QYD">
        <mxGraphModel dx="990" dy="430" grid="1" gridSize="10" guides="1" tooltips="1" connect="1" arrows="1" fold="1" page="1" pageScale="1" pageWidth="3300" pageHeight="4681" background="#ffffff" math="0" shadow="0">
            <root>
                <mxCell id="0"/>
                <mxCell id="1" parent="0"/>
                <mxCell id="2" value="" style="rounded=0;whiteSpace=wrap;html=1;strokeWidth=1;fontSize=18;align=center;" vertex="1" parent="1">
                    <mxGeometry x="540" y="110" width="500" height="310" as="geometry"/>
                </mxCell>
                <mxCell id="3" value="Redis" style="text;html=1;strokeColor=none;fillColor=none;align=center;verticalAlign=middle;whiteSpace=wrap;rounded=0;fontSize=22;fontStyle=1" vertex="1" parent="1">
                    <mxGeometry x="763" y="80" width="40" height="20" as="geometry"/>
                </mxCell>
                <mxCell id="4" value="Key" style="rounded=0;whiteSpace=wrap;html=1;strokeWidth=1;fontSize=18;align=center;fillColor=#dae8fc;strokeColor=#6c8ebf;" vertex="1" parent="1">
                    <mxGeometry x="560" y="130" width="200" height="60" as="geometry"/>
                </mxCell>
                <mxCell id="5" value="Value" style="rounded=0;whiteSpace=wrap;html=1;strokeWidth=1;fontSize=18;align=center;fillColor=#dae8fc;strokeColor=#6c8ebf;" vertex="1" parent="1">
                    <mxGeometry x="760" y="130" width="250" height="60" as="geometry"/>
                </mxCell>
                <mxCell id="9" value="'123'" style="rounded=0;whiteSpace=wrap;html=1;strokeWidth=1;fontSize=22;align=center;" vertex="1" parent="1">
                    <mxGeometry x="560" y="190" width="200" height="50" as="geometry"/>
                </mxCell>
                <mxCell id="10" value="[blog, blog]" style="rounded=0;whiteSpace=wrap;html=1;strokeWidth=1;fontSize=22;align=center;" vertex="1" parent="1">
                    <mxGeometry x="760" y="190" width="250" height="50" as="geometry"/>
                </mxCell>
                <mxCell id="11" value="'343'" style="rounded=0;whiteSpace=wrap;html=1;strokeWidth=1;fontSize=22;align=center;" vertex="1" parent="1">
                    <mxGeometry x="560" y="240" width="200" height="50" as="geometry"/>
                </mxCell>
                <mxCell id="12" value="[blog]" style="rounded=0;whiteSpace=wrap;html=1;strokeWidth=1;fontSize=22;align=center;" vertex="1" parent="1">
                    <mxGeometry x="760" y="240" width="250" height="50" as="geometry"/>
                </mxCell>
                <mxCell id="13" value="'952'" style="rounded=0;whiteSpace=wrap;html=1;strokeWidth=1;fontSize=22;align=center;" vertex="1" parent="1">
                    <mxGeometry x="560" y="290" width="200" height="50" as="geometry"/>
                </mxCell>
                <mxCell id="14" value="[blog, blog]" style="rounded=0;whiteSpace=wrap;html=1;strokeWidth=1;fontSize=22;align=center;" vertex="1" parent="1">
                    <mxGeometry x="760" y="290" width="250" height="50" as="geometry"/>
                </mxCell>
            </root>
        </mxGraphModel>
    </diagram>
    <diagram name="18 - lists" id="g-6EZ_ybwsrf9xJf_fNl">
        <mxGraphModel dx="990" dy="430" grid="1" gridSize="10" guides="1" tooltips="1" connect="1" arrows="1" fold="1" page="1" pageScale="1" pageWidth="3300" pageHeight="4681" background="#ffffff" math="0" shadow="0">
            <root>
                <mxCell id="0"/>
                <mxCell id="1" parent="0"/>
                <mxCell id="30" value="set('spanish', { red: 'rojo' })" style="rounded=0;whiteSpace=wrap;html=1;strokeWidth=1;fontSize=22;align=center;fillColor=#f8cecc;strokeColor=#b85450;" vertex="1" parent="1">
                    <mxGeometry x="622" y="460" width="500" height="110" as="geometry"/>
                </mxCell>
                <mxCell id="31" value="set('spanish', JSON.stringify({ red: 'rojo' }))" style="rounded=0;whiteSpace=wrap;html=1;strokeWidth=1;fontSize=22;align=center;fillColor=#d5e8d4;strokeColor=#82b366;" vertex="1" parent="1">
                    <mxGeometry x="620" y="620" width="500" height="110" as="geometry"/>
                </mxCell>
            </root>
        </mxGraphModel>
    </diagram>
    <diagram name="19 - cache issues" id="TLtTZpLGyXsMSqCdjqiR">
        <mxGraphModel dx="825" dy="358" grid="1" gridSize="10" guides="1" tooltips="1" connect="1" arrows="1" fold="1" page="1" pageScale="1" pageWidth="3300" pageHeight="4681" background="#ffffff" math="0" shadow="0">
            <root>
                <mxCell id="0"/>
                <mxCell id="1" parent="0"/>
                <mxCell id="2" value="Problem" style="text;html=1;strokeColor=none;fillColor=none;align=center;verticalAlign=middle;whiteSpace=wrap;rounded=0;fontSize=18;fontStyle=1" vertex="1" parent="1">
                    <mxGeometry x="550" y="156" width="40" height="20" as="geometry"/>
                </mxCell>
                <mxCell id="3" value="Solution" style="text;html=1;strokeColor=none;fillColor=none;align=center;verticalAlign=middle;whiteSpace=wrap;rounded=0;fontSize=18;fontStyle=1" vertex="1" parent="1">
                    <mxGeometry x="850" y="156" width="40" height="20" as="geometry"/>
                </mxCell>
                <mxCell id="4" value="Caching code isn't easily reusable anywhere else in our codebase" style="rounded=0;whiteSpace=wrap;html=1;strokeWidth=1;fontSize=18;align=center;fillColor=#fff2cc;strokeColor=#d6b656;" vertex="1" parent="1">
                    <mxGeometry x="450" y="190" width="240" height="90" as="geometry"/>
                </mxCell>
                <mxCell id="5" value="Hook in to Mongoose's query generation and execution process" style="rounded=0;whiteSpace=wrap;html=1;strokeWidth=1;fontSize=18;align=center;fillColor=#d5e8d4;strokeColor=#82b366;" vertex="1" parent="1">
                    <mxGeometry x="750" y="190" width="240" height="90" as="geometry"/>
                </mxCell>
                <mxCell id="6" value="Cached values never expire" style="rounded=0;whiteSpace=wrap;html=1;strokeWidth=1;fontSize=18;align=center;fillColor=#fff2cc;strokeColor=#d6b656;" vertex="1" parent="1">
                    <mxGeometry x="450" y="290" width="240" height="90" as="geometry"/>
                </mxCell>
                <mxCell id="7" value="Add timeout to values assigned to redis.&amp;nbsp; Also add ability to reset all values tied to some specific event" style="rounded=0;whiteSpace=wrap;html=1;strokeWidth=1;fontSize=18;align=center;fillColor=#d5e8d4;strokeColor=#82b366;" vertex="1" parent="1">
                    <mxGeometry x="750" y="290" width="240" height="90" as="geometry"/>
                </mxCell>
                <mxCell id="8" value="" style="endArrow=none;html=1;strokeWidth=3;fontSize=18;" edge="1" parent="1">
                    <mxGeometry width="50" height="50" relative="1" as="geometry">
                        <mxPoint x="450" y="180" as="sourcePoint"/>
                        <mxPoint x="990" y="180" as="targetPoint"/>
                    </mxGeometry>
                </mxCell>
                <mxCell id="9" value="" style="endArrow=none;html=1;strokeWidth=3;fontSize=18;" edge="1" parent="1">
                    <mxGeometry width="50" height="50" relative="1" as="geometry">
                        <mxPoint x="720" y="490" as="sourcePoint"/>
                        <mxPoint x="720" y="150" as="targetPoint"/>
                    </mxGeometry>
                </mxCell>
                <mxCell id="10" value="Cache keys won't work when we introduce other collections or query options" style="rounded=0;whiteSpace=wrap;html=1;strokeWidth=1;fontSize=18;align=center;fillColor=#fff2cc;strokeColor=#d6b656;" vertex="1" parent="1">
                    <mxGeometry x="450" y="390" width="240" height="90" as="geometry"/>
                </mxCell>
                <mxCell id="11" value="Figure out a more robust solution for generating cache keys" style="rounded=0;whiteSpace=wrap;html=1;strokeWidth=1;fontSize=18;align=center;fillColor=#d5e8d4;strokeColor=#82b366;" vertex="1" parent="1">
                    <mxGeometry x="750" y="390" width="240" height="90" as="geometry"/>
                </mxCell>
            </root>
        </mxGraphModel>
    </diagram>
</mxfile>
